<svg xmlns="http://www.w3.org/2000/svg" viewBox="0 0 900 900"><defs><style>.cls-1{fill:#999;}.cls-2,.cls-4{fill:none;stroke:#336;stroke-linecap:round;stroke-width:4px;}.cls-2{stroke-linejoin:round;}.cls-3{fill:#336;}.cls-4{stroke-miterlimit:10;}</style></defs><title>mvp-900</title><g id="Layer_2" data-name="Layer 2"><g id="Layer_3" data-name="Layer 3"><rect class="cls-1" width="900" height="900"/></g><g id="Layer_1-2" data-name="Layer 1"><circle class="cls-2" cx="543.31" cy="636.28" r="42.68"/><path class="cls-2" d="M562.51,655.49a27.17,27.17,0,0,1-38.41,0"/><circle class="cls-3" cx="525.85" cy="626.58" r="3.88"/><circle class="cls-3" cx="560.77" cy="626.58" r="3.88"/><circle class="cls-3" cx="753.42" cy="626.58" r="3.88"/><circle class="cls-3" cx="788.33" cy="626.58" r="3.88"/><circle class="cls-2" cx="770.87" cy="636.28" r="42.68"/><path class="cls-2" d="M794.15,644a23.28,23.28,0,1,1-46.55,0Z"/><ellipse class="cls-3" cx="753.42" cy="150.97" rx="3.9" ry="3.86" transform="translate(113.92 576.97) rotate(-45)"/><ellipse class="cls-3" cx="788.33" cy="150.97" rx="3.9" ry="3.86" transform="translate(124.15 601.65) rotate(-45)"/><ellipse class="cls-2" cx="770.87" cy="160.67" rx="42.71" ry="42.63" transform="translate(112.17 592.15) rotate(-45)"/><path class="cls-2" d="M792.94,168.43a1.17,1.17,0,0,1,1.18,1.21,23.28,23.28,0,0,1-46.49,0,1.17,1.17,0,0,1,1.18-1.21Z"/><circle class="cls-2" cx="315.74" cy="636.28" r="42.68"/><line class="cls-2" x1="300.22" y1="655.68" x2="331.26" y2="655.68"/><circle class="cls-3" cx="298.28" cy="626.58" r="3.88"/><circle class="cls-3" cx="333.2" cy="626.58" r="3.88"/><circle class="cls-2" cx="88.17" cy="636.28" r="42.68"/><circle class="cls-3" cx="70.71" cy="626.58" r="3.88"/><circle class="cls-3" cx="105.63" cy="626.58" r="3.88"/><path class="cls-2" d="M71.71,656.45c4.22-5.27,10-8.53,16.46-8.53s12.25,3.26,16.46,8.53"/><line class="cls-2" x1="68.77" y1="613.01" x2="76.53" y2="616.89"/><line class="cls-2" x1="107.57" y1="613.01" x2="99.81" y2="616.89"/><ellipse class="cls-2" cx="550.54" cy="160.67" rx="42.71" ry="42.63" transform="translate(47.64 436.35) rotate(-45)"/><ellipse class="cls-3" cx="533.08" cy="150.97" rx="3.9" ry="3.86" transform="translate(49.38 421.16) rotate(-45)"/><ellipse class="cls-3" cx="568" cy="150.97" rx="3.9" ry="3.86" transform="translate(59.61 445.85) rotate(-45)"/><path class="cls-2" d="M534.08,180.83c4.21-5.27,10-8.52,16.46-8.52s12.25,3.25,16.46,8.52"/><line class="cls-2" x1="531.14" y1="137.39" x2="538.9" y2="141.27"/><line class="cls-2" x1="569.94" y1="137.39" x2="562.18" y2="141.27"/><ellipse class="cls-2" cx="346.82" cy="160.67" rx="42.71" ry="42.63" transform="translate(-12.03 292.3) rotate(-45)"/><ellipse class="cls-3" cx="329.36" cy="150.97" rx="3.9" ry="3.86" transform="translate(-10.28 277.11) rotate(-45)"/><ellipse class="cls-3" cx="364.28" cy="150.97" rx="3.9" ry="3.86" transform="translate(-0.06 301.8) rotate(-45)"/><path class="cls-2" d="M330.36,180.83c4.21-5.27,10-8.52,16.46-8.52s12.24,3.25,16.46,8.52"/><line class="cls-2" x1="327.42" y1="137.39" x2="335.18" y2="141.27"/><line class="cls-2" x1="366.22" y1="137.39" x2="358.46" y2="141.27"/><ellipse class="cls-2" cx="130.85" cy="160.67" rx="42.71" ry="42.63" transform="translate(-75.28 139.58) rotate(-45)"/><circle class="cls-3" cx="113.39" cy="150.97" r="3.88"/><circle class="cls-3" cx="148.31" cy="150.97" r="3.88"/><path class="cls-2" d="M114.39,180.83c4.21-5.27,10-8.52,16.46-8.52s12.25,3.25,16.46,8.52"/><line class="cls-2" x1="111.45" y1="137.39" x2="119.21" y2="141.27"/><line class="cls-2" x1="150.25" y1="137.39" x2="142.49" y2="141.27"/><line class="cls-2" x1="19.77" y1="465.92" x2="887.46" y2="465.92"/></g><g id="Layer_2-2" data-name="Layer 2"><path class="cls-4" d="M269.44,797.52s20.57,0,20.57,19.21h47l18.14-24.83"/><line class="cls-4" x1="341.87" y1="733.03" x2="361.39" y2="815.45"/><line class="cls-4" x1="326.36" y1="735.49" x2="341.87" y2="735.49"/><circle class="cls-4" cx="270.83" cy="816.45" r="9.98"/><circle class="cls-4" cx="360.65" cy="816.45" r="9.98"/><polyline class="cls-4" points="41.57 800.72 52.23 808.44 134.78 808.44"/><circle class="cls-4" cx="64.82" cy="822.88" r="5.93"/><circle class="cls-4" cx="117.56" cy="822.88" r="5.93"/><circle class="cls-4" cx="493.9" cy="793.95" r="33.92"/><circle class="cls-4" cx="592.72" cy="793.95" r="33.92"/><path class="cls-4" d="M503.07,736.74h25.71"/><polyline class="cls-4" points="559.78 727.24 579.55 738.38 570 747.52 514.38 747.52 493.48 793.95 543.5 792.57 561.04 759.3"/><line class="cls-4" x1="514.82" y1="737.76" x2="514.82" y2="747.53"/><line class="cls-4" x1="571.6" y1="745.99" x2="593.46" y2="795.57"/><path class="cls-2" d="M837.57,817.31c.74,0,19.94,1.71,19.25-2.61s-1-27.4-5.25-33.37c-5.23-7.34-38.11-17.14-38.28-16.22A363,363,0,0,0,781.15,745c-6.41-3.45-33.41-5.58-39.11-2.35-4.35,2.48-20.22,11.19-28.64,19.29H692.2v24l-7.29,4.83s3.52,20,10.53,24.4A27.26,27.26,0,0,0,711.7,819"/><circle class="cls-2" cx="727.72" cy="810.36" r="18.18"/><circle class="cls-2" cx="820.53" cy="810.99" r="18.18"/><line class="cls-2" x1="744.69" y1="816.83" x2="802.34" y2="816.83"/><polyline class="cls-2" points="718.88 758.56 729.93 771.59 801.71 771.59 813.29 765.11"/><line class="cls-2" x1="759.1" y1="741.48" x2="765.57" y2="771.59"/><path class="cls-2" d="M837.57,341.69c.74,0,19.94,1.71,19.25-2.61s-1-27.4-5.25-33.37c-5.23-7.34-38.11-17.14-38.28-16.21a362.36,362.36,0,0,0-32.14-20.09c-6.41-3.45-33.41-5.58-39.11-2.34-4.35,2.47-20.22,11.18-28.64,19.28H692.2v24l-7.29,4.82s3.52,20,10.53,24.4a27.35,27.35,0,0,0,16.26,3.75"/><circle class="cls-2" cx="727.72" cy="334.75" r="18.18"/><circle class="cls-2" cx="820.53" cy="335.38" r="18.18"/><line class="cls-2" x1="744.69" y1="341.21" x2="802.34" y2="341.21"/><polyline class="cls-2" points="718.88 282.95 729.93 295.97 801.71 295.97 813.29 289.5"/><line class="cls-2" x1="759.1" y1="265.86" x2="765.57" y2="295.97"/><path class="cls-2" d="M501.44,286.35H471.87v24l-7.3,4.82s3.52,20,10.53,24.4a27.39,27.39,0,0,0,16.27,3.75"/><path class="cls-2" d="M617.24,341.69c.74,0,19.93,1.71,19.25-2.61s-1-27.4-5.25-33.37C626,298.37,593.13,288.57,593,289.5"/><circle class="cls-2" cx="507.39" cy="334.75" r="18.18"/><circle class="cls-2" cx="600.19" cy="335.38" r="18.18"/><line class="cls-2" x1="524.35" y1="341.21" x2="582.01" y2="341.21"/><polyline class="cls-2" points="501.69 286.1 509.6 295.97 581.38 295.97 592.96 289.5"/><circle class="cls-2" cx="303.67" cy="334.75" r="18.18"/><circle class="cls-2" cx="396.47" cy="335.38" r="18.18"/><line class="cls-2" x1="320.63" y1="341.21" x2="378.29" y2="341.21"/><circle class="cls-2" cx="87.7" cy="334.75" r="18.18"/><circle class="cls-2" cx="180.5" cy="335.38" r="18.18"/></g></g></svg>