<?xml version="1.0" encoding="utf-8"?>
<!-- Generator: Adobe Illustrator 23.1.1, SVG Export Plug-In . SVG Version: 6.00 Build 0)  -->
<svg version="1.1" id="Layer_1" xmlns="http://www.w3.org/2000/svg" xmlns:xlink="http://www.w3.org/1999/xlink" x="0px" y="0px"
	 viewBox="0 0 35.7 34.6" style="enable-background:new 0 0 35.7 34.6;" xml:space="preserve">
<style type="text/css">
	.st0{fill:#595959;}
</style>
<title>building</title>
<g>
	<g id="Calque_1">
		<path class="st0" d="M31.6,33.2V12.1h-8.5v1.4h7.1v19.7h-7.9V0H4.7v33.2H0v1.3h35.7v-1.3H31.6z M11.6,33.2v-5.6h3.4v5.6H11.6z
			 M10.3,26.3v6.9H6V1.4h15v31.9h-4.6v-6.9H10.3z"/>
		<rect x="9.7" y="6" class="st0" width="1.4" height="2.8"/>
		<rect x="9.7" y="12.8" class="st0" width="1.4" height="2.8"/>
		<rect x="9.7" y="19" class="st0" width="1.4" height="2.8"/>
		<rect x="16" y="6" class="st0" width="1.4" height="2.8"/>
		<rect x="16" y="12.8" class="st0" width="1.4" height="2.8"/>
		<rect x="16" y="19" class="st0" width="1.4" height="2.8"/>
		<rect x="25.3" y="19" class="st0" width="1.4" height="2.8"/>
		<rect x="25.3" y="24.2" class="st0" width="1.4" height="2.7"/>
	</g>
</g>
</svg>
