<?xml version="1.0" encoding="utf-8"?>
<!-- Generator: Adobe Illustrator 23.1.1, SVG Export Plug-In . SVG Version: 6.00 Build 0)  -->
<svg version="1.1" id="Layer_1" xmlns="http://www.w3.org/2000/svg" xmlns:xlink="http://www.w3.org/1999/xlink" x="0px" y="0px"
	 viewBox="0 0 34.4 38" style="enable-background:new 0 0 34.4 38;" xml:space="preserve">
<style type="text/css">
	.st0{fill:#595959;}
</style>
<title>cal</title>
<g>
	<g id="Calque_1">
		<rect x="7.1" y="20.9" class="st0" width="2.5" height="2.5"/>
		<rect x="13" y="20.9" class="st0" width="2.5" height="2.5"/>
		<rect x="18.9" y="20.9" class="st0" width="2.5" height="2.5"/>
		<rect x="24.8" y="20.9" class="st0" width="2.5" height="2.5"/>
		<rect x="7.1" y="27.4" class="st0" width="2.5" height="2.5"/>
		<rect x="13" y="27.4" class="st0" width="2.5" height="2.5"/>
		<rect x="18.9" y="27.4" class="st0" width="2.5" height="2.5"/>
		<rect x="24.8" y="27.4" class="st0" width="2.5" height="2.5"/>
		<path class="st0" d="M31.2,3.6h-2.3V2.8c0-1.5-1.3-2.8-2.8-2.8c-1.5,0-2.8,1.3-2.8,2.8v0.8H11.1V2.8C11.1,1.3,9.9,0,8.3,0
			S5.5,1.3,5.5,2.8v0.8H3.2C1.4,3.6,0,5.1,0,6.8c0,0,0,0,0,0v28C0,36.6,1.5,38,3.2,38h28c1.8,0,3.2-1.4,3.2-3.2v-28
			C34.4,5,33,3.6,31.2,3.6z M24.6,2.8c0-0.8,0.7-1.5,1.5-1.5s1.5,0.7,1.5,1.5v5c0,0.8-0.7,1.5-1.5,1.5s-1.5-0.7-1.5-1.5V2.8z
			 M6.8,2.8c0-0.8,0.7-1.5,1.5-1.5S9.9,2,9.9,2.8v5c0,0.8-0.7,1.5-1.5,1.5S6.9,8.6,6.9,7.8L6.8,2.8z M33.1,34.8
			c0,1.1-0.9,1.9-1.9,1.9l0,0h-28c-1.1,0-1.9-0.9-1.9-1.9V15.1h31.8V34.8z M33.1,13.8H1.3v-7c0-1.1,0.9-1.9,1.9-1.9h2.3v2.9
			c0,1.5,1.3,2.8,2.8,2.8c1.5,0,2.8-1.3,2.8-2.8V4.9h12.1v2.9c0,1.5,1.3,2.8,2.8,2.8c1.5,0,2.8-1.3,2.8-2.8V4.9h2.3
			c1.1,0,1.9,0.9,1.9,1.9l0,0V13.8z"/>
	</g>
</g>
</svg>
