<?xml version="1.0" encoding="utf-8"?>
<!-- Generator: Adobe Illustrator 23.1.1, SVG Export Plug-In . SVG Version: 6.00 Build 0)  -->
<svg version="1.1" id="Layer_1" xmlns="http://www.w3.org/2000/svg" xmlns:xlink="http://www.w3.org/1999/xlink" x="0px" y="0px"
	 viewBox="0 0 40.4 36.8" style="enable-background:new 0 0 40.4 36.8;" xml:space="preserve">
<style type="text/css">
	.st0{fill:#595959;}
</style>
<title>cloud-time</title>
<g>
	<g id="Calque_1">
		<path class="st0" d="M20.7,36.8c-5.8,0-10.5-4.7-10.5-10.5s4.7-10.5,10.5-10.5s10.5,4.7,10.5,10.5c0,0,0,0,0,0
			C31.3,32.1,26.6,36.8,20.7,36.8z M20.7,16.9c-5.2,0-9.4,4.2-9.4,9.4s4.2,9.4,9.4,9.4s9.4-4.2,9.4-9.4
			C30.1,21.1,25.9,16.9,20.7,16.9z"/>
		<path class="st0" d="M20.1,29.7c-0.1,0-0.3,0-0.4-0.1l-3.9-3.3c-0.2-0.2-0.3-0.6-0.1-0.8s0.6-0.3,0.8-0.1l0,0l3.5,2.9l5.2-5.2
			c0.2-0.2,0.6-0.2,0.8,0s0.2,0.6,0,0.8l-5.6,5.6C20.5,29.6,20.3,29.7,20.1,29.7z"/>
		<path class="st0" d="M34.1,13.2c0.1-0.6,0.2-1.2,0.2-1.9c0.3-5.9-3.8-11-9.1-11.4c-4.1-0.2-7.9,2.3-9.4,6.2
			c-1.1-0.7-2.3-1.1-3.6-1.1C8.2,5.1,5,8.6,5,12.8c0,0.4,0,0.9,0.1,1.3c-3.1,1-5.2,4-5.1,7.3C0,25.6,3,29,6.7,29
			c0.4,0,0.8,0,1.2-0.1h2.7v-1.2H7.8c-0.3,0.1-0.7,0.1-1,0.1c-3.1,0-5.6-2.9-5.6-6.4c0-3.1,2-5.9,4.8-6.3c0.2,0,0.3-0.1,0.4-0.2
			c0.1-0.1,0.1-0.3,0.1-0.4c-0.1-0.5-0.2-1.1-0.2-1.6c0-3.6,2.7-6.6,6-6.6c1.3,0,2.5,0.5,3.5,1.3c0.1,0.1,0.3,0.2,0.5,0.1
			c0.2-0.1,0.3-0.2,0.4-0.4c1.1-3.8,4.6-6.3,8.5-6.1c4.7,0.3,8.3,4.9,8,10.2c0,0.8-0.2,1.5-0.4,2.3c0,0.2,0,0.3,0.1,0.5
			c0.1,0.1,0.3,0.2,0.4,0.2c3.5,0.3,6,3.3,5.9,6.8c0,3.7-2.8,6.8-6.1,6.8c-0.4,0-0.7,0-1.1-0.1h-1.4v1.1h1.2
			c0.4,0.1,0.9,0.1,1.3,0.1c4,0,7.3-3.5,7.3-7.9C40.5,17.3,37.8,13.9,34.1,13.2z"/>
	</g>
</g>
</svg>
