<?xml version="1.0" encoding="utf-8"?>
<!-- Generator: Adobe Illustrator 23.1.1, SVG Export Plug-In . SVG Version: 6.00 Build 0)  -->
<svg version="1.1" id="Layer_1" xmlns="http://www.w3.org/2000/svg" xmlns:xlink="http://www.w3.org/1999/xlink" x="0px" y="0px"
	 viewBox="0 0 40.4 37.4" style="enable-background:new 0 0 40.4 37.4;" xml:space="preserve">
<style type="text/css">
	.st0{fill:#595959;}
</style>
<title>cloud-lock</title>
<g>
	<g id="Calque_1">
		<path class="st0" d="M24.1,37.4h-7.7c-3.7-0.1-6.6-3.2-6.4-6.9v-7.8c0-0.1,0-0.3,0-0.4c0-0.3,0.3-0.5,0.6-0.5h2.9v-4.3
			c-0.1-3.5,2.7-6.3,6.1-6.4c0,0,0.1,0,0.1,0h1.2c3.5,0,6.4,2.9,6.4,6.4v4.4h2.7c0.3,0,0.5,0.2,0.6,0.5c0,0.1,0,0.3,0,0.4v7.8
			C30.6,34.2,27.7,37.3,24.1,37.4z M11,22.9v7.6c-0.1,3,2.2,5.6,5.3,5.7H24c3-0.1,5.4-2.7,5.3-5.7v-7.6h-2.7c-0.3,0-0.6-0.3-0.6-0.6
			v-4.9c0-2.9-2.4-5.3-5.3-5.3h-1.1c-2.8,0-5.1,2.3-5.1,5.2c0,0,0,0.1,0,0.1v4.9c0,0.3-0.2,0.6-0.6,0.6c0,0,0,0,0,0H11z M21.5,33.3
			h-2.4c-0.2,0-0.3-0.1-0.4-0.2c-0.1-0.1-0.2-0.3-0.1-0.4l0.2-2.2c-0.9-0.9-0.9-2.3,0-3.1c0.9-0.9,2.3-0.9,3.1,0s0.9,2.3,0,3.1
			c0,0,0,0,0,0l0.2,2.2C22,33,21.8,33.3,21.5,33.3C21.5,33.3,21.5,33.3,21.5,33.3L21.5,33.3z M19.7,32.2h1.1l-0.2-1.9
			c0-0.2,0.1-0.4,0.2-0.5c0.3-0.2,0.4-0.5,0.4-0.9c0-0.6-0.5-1.1-1.1-1.1c-0.6,0-1.1,0.5-1.1,1.1c0,0.3,0.2,0.7,0.4,0.9
			c0.2,0.1,0.2,0.3,0.2,0.5L19.7,32.2z M23.8,22.9h-7.2c-0.3,0-0.6-0.3-0.6-0.6c0,0,0,0,0,0v-4.6c-0.2-2.3,1.5-4.3,3.8-4.4
			c0.1,0,0.1,0,0.2,0c2.4,0,4.3,2,4.3,4.3c0,0,0,0.1,0,0.1v4.6C24.4,22.6,24.1,22.9,23.8,22.9z M17.2,21.8h6v-4
			c0.1-1.7-1.2-3.2-3-3.3c0,0-0.1,0-0.1,0c-1.7,0-3,1.4-2.9,3.1c0,0.1,0,0.1,0,0.2L17.2,21.8z"/>
		<path class="st0" d="M34.1,13.2c0.1-0.6,0.2-1.2,0.2-1.9c0.3-5.9-3.8-11-9.1-11.4c-4.1-0.2-7.9,2.3-9.4,6.2
			c-1.1-0.7-2.3-1.1-3.6-1.1C8.2,5.1,5,8.6,5,12.8c0,0.4,0,0.9,0.1,1.3c-3.1,1-5.2,4-5.1,7.3C0,25.6,3,29,6.7,29
			c0.4,0,0.8,0,1.2-0.1h2.5v-1.2H7.8c-0.3,0.1-0.7,0.1-1,0.1c-3.1,0-5.6-2.9-5.6-6.4c0-3.1,2-5.9,4.8-6.3c0.2,0,0.3-0.1,0.4-0.2
			c0.1-0.1,0.1-0.3,0.1-0.4c-0.1-0.5-0.2-1.1-0.2-1.6c0-3.6,2.7-6.6,6-6.6c1.3,0,2.5,0.5,3.5,1.3c0.1,0.1,0.3,0.2,0.5,0.1
			c0.2-0.1,0.3-0.2,0.4-0.4c1.1-3.8,4.6-6.3,8.5-6.1c4.7,0.3,8.3,4.9,8,10.2c0,0.8-0.2,1.5-0.4,2.3c0,0.2,0,0.3,0.1,0.5
			c0.1,0.1,0.3,0.2,0.4,0.2c3.5,0.3,6,3.3,5.9,6.8c0,3.7-2.8,6.8-6.1,6.8c-0.4,0-0.7,0-1.1-0.1h-1.5v1.1h1.3
			c0.4,0.1,0.9,0.1,1.3,0.1c4,0,7.3-3.5,7.3-7.9C40.5,17.3,37.8,13.9,34.1,13.2z"/>
	</g>
</g>
</svg>
