<?xml version="1.0" encoding="utf-8"?>
<!-- Generator: Adobe Illustrator 23.1.1, SVG Export Plug-In . SVG Version: 6.00 Build 0)  -->
<svg version="1.1" id="Layer_1" xmlns="http://www.w3.org/2000/svg" xmlns:xlink="http://www.w3.org/1999/xlink" x="0px" y="0px"
	 viewBox="0 0 44.5 37" style="enable-background:new 0 0 44.5 37;" xml:space="preserve">
<style type="text/css">
	.st0{fill:#595959;}
</style>
<title>convo</title>
<g>
	<g id="Calque_1">
		<path class="st0" d="M24.8,6.3h-3.5c-2.2,0-3.9,1.8-3.9,3.9v9.4h1.3v-9.4c0-1.4,1.2-2.6,2.6-2.6h3.5V6.3z"/>
		<path class="st0" d="M40.6,6.3H28.7V4.2c0-2.3-1.8-4.2-4.1-4.2H4.1C1.8,0,0,1.9,0,4.2v14.9c0,2.3,1.8,4.2,4.1,4.2h1.5v7.1
			c0,0.4,0.3,0.7,0.7,0.7c0.2,0,0.3-0.1,0.5-0.2l8-7.6h2.7v2.5c0,2.2,1.7,3.9,3.9,3.9h9.2l0,0l7.5,7.2c0.2,0.2,0.5,0.2,0.7,0.1
			c0.2-0.1,0.4-0.3,0.4-0.6v-6.7h1.4c2.2,0,3.9-1.8,3.9-3.9V10.2C44.4,8,42.7,6.3,40.6,6.3z M14.5,21.8c-0.2,0-0.4,0-0.5,0.2l-7,6.8
			v-6.2c0-0.4-0.3-0.7-0.7-0.7H4.1c-1.5,0-2.7-1.2-2.7-2.8V4.2c0-1.5,1.2-2.8,2.7-2.8h20.4c1.5,0,2.8,1.2,2.8,2.8c0,0,0,0,0,0v14.9
			c0,1.5-1.2,2.8-2.7,2.8c0,0,0,0,0,0H14.5z M43.2,25.7c0,1.4-1.2,2.6-2.6,2.6c0,0,0,0,0,0h-2c-0.4,0-0.7,0.3-0.7,0.6c0,0,0,0,0,0
			v5.9l-6.6-6.3c-0.1-0.1-0.3-0.2-0.5-0.2h-9.5c-1.4,0-2.6-1.2-2.6-2.6v-2.5h5.8c2.3,0,4.1-1.9,4.1-4.2V7.6h11.9
			c1.4,0,2.6,1.2,2.6,2.6c0,0,0,0,0,0L43.2,25.7z"/>
	</g>
</g>
</svg>
