<svg xmlns="http://www.w3.org/2000/svg" viewBox="0 0 39.54 30.68"><defs><style>.cls-1{fill:#595959;}</style></defs><title>devices</title><g id="Layer_2" data-name="Layer 2"><g id="Calque_1" data-name="Calque 1"><path class="cls-1" d="M20.34,30.61H14.17a.7.7,0,1,1,0-1.4h6.17a.7.7,0,0,1,0,1.4Z"/><path class="cls-1" d="M24,30.61H10.52a.7.7,0,0,1,0-1.4H24a.7.7,0,1,1,0,1.4Z"/><path class="cls-1" d="M37.43,30.68H31a2.1,2.1,0,0,1-2.1-2.1V15.25a2.1,2.1,0,0,1,2.1-2.1h6.45a2.11,2.11,0,0,1,2.11,2.1V28.58A2.11,2.11,0,0,1,37.43,30.68ZM31,14.55a.7.7,0,0,0-.7.7V28.58a.7.7,0,0,0,.7.7h6.45a.7.7,0,0,0,.7-.7V15.25a.7.7,0,0,0-.7-.7Z"/><path class="cls-1" d="M20.34,24.72H2.66A1.26,1.26,0,0,1,1.4,23.46V22.2H20.34V20.79H1.4V2.66A1.27,1.27,0,0,1,2.66,1.4H31.84A1.27,1.27,0,0,1,33.1,2.66v3h1.4v-3A2.67,2.67,0,0,0,31.84,0H2.66A2.67,2.67,0,0,0,0,2.66v20.8a2.67,2.67,0,0,0,2.66,2.66H20.34Z"/><path class="cls-1" d="M32.1,29.21H21.74a.7.7,0,0,1-.7-.7V7.05a.7.7,0,0,1,.7-.7H34.5a.7.7,0,0,1,.7.7v6.8h1.41V7.05A2.11,2.11,0,0,0,34.5,5H21.74a2.1,2.1,0,0,0-2.1,2.1V28.51a2.1,2.1,0,0,0,2.1,2.1H32.1Z"/><path class="cls-1" d="M19.64,29.21H14.1V26.12h5.54v-1.4H13.39a.71.71,0,0,0-.7.7v4.49a.7.7,0,0,0,.7.7h6.25Z"/></g></g></svg>