<?xml version="1.0" encoding="utf-8"?>
<!-- Generator: Adobe Illustrator 23.1.1, SVG Export Plug-In . SVG Version: 6.00 Build 0)  -->
<svg version="1.1" id="Layer_1" xmlns="http://www.w3.org/2000/svg" xmlns:xlink="http://www.w3.org/1999/xlink" x="0px" y="0px"
	 viewBox="0 0 35.5 38.4" style="enable-background:new 0 0 35.5 38.4;" xml:space="preserve">
<style type="text/css">
	.st0{fill:#595959;}
</style>
<title>directions</title>
<g>
	<g id="Calque_1">
		<path class="st0" d="M21.8,33.2H11c-1.6,0-2.9,1.3-2.9,2.9v1.7c0,0.3,0.3,0.6,0.6,0.6h15.4c0.3,0,0.6-0.3,0.6-0.6c0,0,0,0,0,0
			v-1.7C24.7,34.5,23.4,33.2,21.8,33.2C21.8,33.2,21.8,33.2,21.8,33.2z M23.5,37.2H9.2v-1.1c0-1,0.8-1.7,1.7-1.7c0,0,0,0,0,0h10.8
			c0.9,0,1.7,0.8,1.7,1.7V37.2z"/>
		<path class="st0" d="M28.1,9H6.3C6.2,9,6,9.1,5.9,9.2l-5.7,6.1c-0.2,0.2-0.2,0.6,0,0.8l5.7,6.1c0.1,0.1,0.3,0.2,0.4,0.2h9.8
			c0,0,0,0.1,0,0.1v10c0,0.3,0.3,0.5,0.7,0.5c0.3,0,0.5-0.2,0.5-0.5v-10c0,0,0-0.1,0-0.1h10.8c0.3,0,0.6-0.3,0.6-0.6V9.6
			C28.6,9.2,28.4,9,28.1,9z M27.5,21.2h-21l-5.2-5.5l5.2-5.5h21L27.5,21.2z"/>
		<path class="st0" d="M35.3,6.3l-5.7-6.1C29.5,0.1,29.3,0,29.2,0H7.4C7.1,0,6.8,0.3,6.8,0.6v7.3H8V1.1h20.9l5.2,5.5l-3.4,3.6V12
			l4.6-4.9C35.5,6.9,35.5,6.5,35.3,6.3z"/>
		<path class="st0" d="M9.9,14.7h13.6c0.3,0,0.5-0.3,0.5-0.7c0-0.3-0.2-0.5-0.5-0.5H9.9c-0.3,0-0.5,0.3-0.5,0.7
			C9.4,14.5,9.6,14.7,9.9,14.7z"/>
		<path class="st0" d="M23.4,16.6h-9.1c-0.3,0-0.5,0.3-0.5,0.7c0,0.3,0.2,0.5,0.5,0.5h9.1c0.3,0,0.6-0.2,0.7-0.5
			c0-0.3-0.2-0.6-0.5-0.7C23.5,16.6,23.5,16.6,23.4,16.6z"/>
		<path class="st0" d="M21.3,5.9c0.3,0,0.5-0.3,0.5-0.7c0-0.3-0.2-0.5-0.5-0.5h-9.1c-0.3,0-0.6,0.2-0.7,0.5c0,0.3,0.2,0.6,0.5,0.7
			c0.1,0,0.1,0,0.2,0H21.3z"/>
	</g>
</g>
</svg>
