<?xml version="1.0" encoding="utf-8"?>
<!-- Generator: Adobe Illustrator 24.0.0, SVG Export Plug-In . SVG Version: 6.00 Build 0)  -->
<svg version="1.1" id="Layer_1" xmlns="http://www.w3.org/2000/svg" xmlns:xlink="http://www.w3.org/1999/xlink" x="0px" y="0px"
	 viewBox="0 0 48 48" style="enable-background:new 0 0 48 48;" xml:space="preserve">
<style type="text/css">
	.st0{fill:#595959;}
</style>
<title>draft</title>
<g id="Layer_2_1_">
	<g id="Calque_1">
		<path id="Icon" class="st0" d="M47.3,36.9L34,23.6l7.4-7.4l0,0l2.5-2.5c2-2,2-5.2,0-7.1c0,0,0,0,0,0l-2.3-2.2c-2-2-5.2-2-7.1,0
			L32,6.8l0,0l-3.1,3l0,0l-4.3,4.3L11.1,0.7c-0.3-0.3-0.7-0.3-1,0L0.7,10c-0.3,0.3-0.3,0.7,0,1c0,0,0,0,0,0l9,9l0,0l4.5,4.5L6.8,32
			l-0.1,0.1l0,0l-0.1,0.1l0,0L2.5,44.7c-0.1,0.3,0,0.5,0.2,0.7c0.1,0.1,0.3,0.2,0.5,0.2c0.1,0,0.2,0,0.2,0l12.4-4.1l0,0l0.1-0.1l0,0
			l0.1-0.1l7.4-7.5l9.7,9.6l0,0l3.7,3.7c0.3,0.3,0.7,0.3,1,0c0,0,0,0,0,0l9.4-9.4C47.6,37.7,47.6,37.2,47.3,36.9z M32.5,8.3l7.3,7.3
			l-2.1,2.1l-7.3-7.3L32.5,8.3z M35.5,5.3c1.4-1.4,3.7-1.4,5.1,0l2.2,2.2c1.4,1.4,1.4,3.7,0,5.1c0,0,0,0,0,0l-2,2l-7.3-7.3L35.5,5.3
			z M14,22.3l2.3-2.3c0.3-0.3,0.3-0.7,0-1c-0.3-0.3-0.7-0.3-1,0l-2.3,2.3l-1.7-1.7l4.2-4.2c0.3-0.3,0.3-0.7,0-1
			c-0.3-0.3-0.7-0.3-1-0.1c0,0,0,0,0,0l-4.2,4.2l-1.7-1.6l2.3-2.3c0.3-0.3,0.3-0.7,0-1c-0.3-0.3-0.7-0.3-1,0l-2.3,2.2l-1.7-1.7
			L10,9.9c0.3-0.3,0.3-0.7,0-1c-0.3-0.3-0.7-0.3-1,0c0,0,0,0,0,0l-4.2,4.2l-2.5-2.5l8.3-8.3l13,13l-8.3,8.3L14,22.3z M29.5,11.4
			l7.3,7.3L15.6,39.9l-7.3-7.3L29.5,11.4z M5.5,40.1l2.5,2.5l-3.8,1.3L5.5,40.1z M9.6,42.1L6,38.6l1.5-4.7l6.7,6.7L9.6,42.1z
			 M37.4,45.7l-2.6-2.6l4.2-4.2c0.3-0.3,0.3-0.7,0-1c-0.3-0.3-0.7-0.3-1,0c0,0,0,0,0,0l-4.2,4.2l-1.6-1.6l2.3-2.3
			c0.3-0.3,0.3-0.7,0-1c-0.3-0.3-0.7-0.3-1,0l-2.3,2.3l-1.8-1.8l4.2-4.2c0.3-0.3,0.3-0.7,0-1c-0.3-0.3-0.7-0.3-1,0c0,0,0,0,0,0
			l-4.2,4.2l-1.6-1.6l2.3-2.3c0.3-0.3,0.3-0.7,0-1c-0.3-0.3-0.7-0.3-1,0l0,0L25.7,34l-1.1-1.1l8.3-8.3l12.8,12.8L37.4,45.7z"/>
	</g>
</g>
</svg>
