<?xml version="1.0" encoding="utf-8"?>
<!-- Generator: Adobe Illustrator 23.1.1, SVG Export Plug-In . SVG Version: 6.00 Build 0)  -->
<svg version="1.1" id="Layer_1" xmlns="http://www.w3.org/2000/svg" xmlns:xlink="http://www.w3.org/1999/xlink" x="0px" y="0px"
	 viewBox="0 0 31.2 36.2" style="enable-background:new 0 0 31.2 36.2;" xml:space="preserve">
<style type="text/css">
	.st0{fill:#595959;}
</style>
<title>female</title>
<g>
	<g id="Calque_1">
		<path class="st0" d="M26.6,30.7c-0.4,0-0.7-0.3-0.6-0.7c0,0,0,0,0,0V11.6c0-5.7-4.6-10.2-10.2-10.2S5.5,5.9,5.5,11.6v18.1
			c0,0.4-0.3,0.7-0.7,0.7c-0.4,0-0.7-0.3-0.7-0.7l0,0V11.6C4.2,5.2,9.4,0,15.8,0c6.4,0,11.6,5.2,11.6,11.6V30
			C27.3,30.4,27.1,30.7,26.6,30.7C26.7,30.7,26.7,30.7,26.6,30.7z"/>
		<path class="st0" d="M0.7,36.2c-0.1,0-0.2,0-0.3,0C0.1,36-0.1,35.7,0,35.3c0,0,0,0,0,0l2.1-4.8c0.1-0.2,0.2-0.3,0.4-0.4l6.9-2.9
			l1.2-4.3c0.1-0.4,0.5-0.6,0.8-0.5c0.4,0.1,0.6,0.5,0.5,0.8l0,0l-1.3,4.7c-0.1,0.2-0.2,0.4-0.4,0.4l-6.9,2.8l-2,4.6
			C1.1,36,0.9,36.2,0.7,36.2z"/>
		<path class="st0" d="M30.5,36.2c-0.3,0-0.5-0.2-0.6-0.4L28,31.2l-6.9-2.9c-0.2-0.1-0.3-0.2-0.4-0.4l-1.3-4.6
			c-0.1-0.3,0.1-0.7,0.4-0.8c0.3-0.1,0.7,0.1,0.8,0.4c0,0,0,0.1,0,0.1l1.2,4.3l6.9,2.9c0.2,0.1,0.3,0.2,0.4,0.4l2,4.8
			c0.1,0.3,0,0.7-0.4,0.9C30.7,36.2,30.6,36.2,30.5,36.2z"/>
		<path class="st0" d="M15.5,33.7c-3.8,0-6.9-2.6-6.9-5.8c0-0.4,0.3-0.7,0.7-0.7c0.4,0,0.7,0.3,0.7,0.7c0,2.5,2.5,4.5,5.6,4.5
			s5.6-2,5.6-4.5c0-0.4,0.3-0.7,0.7-0.7c0.4,0,0.7,0.3,0.7,0.7C22.4,31.1,19.3,33.7,15.5,33.7z"/>
		<path class="st0" d="M11.8,8.2c0,0,1.5,4.9,2.2,4.9l0,0c0.5,0,1,0,1.6,0c0.6,0,1.3,0,2,0.1l0,0c0.3,0,1.2-3.7,1.2-3.7
			c0.5,0.1,0.7,3.8,1.2,3.9c1,0.1,2,0.4,3,0.6c0,0.1,0,0.2,0,0.2c0,6.1-3.4,11-7.6,11s-7.7-5-7.7-11c0,0,0-0.1,0-0.1
			c1-0.3,2-0.5,3.1-0.7C11.1,13.5,11.8,8.3,11.8,8.2 M11.8,6.9h-0.1c-0.6,0.1-1.1,0.5-1.2,1.1c-0.2,1.5-0.4,3.3-0.6,4.3
			c-0.8,0.1-1.6,0.3-2.4,0.6c-0.6,0.1-1,0.7-1,1.3v0.1c0,6.8,4,12.4,9,12.4s9-5.5,9-12.4V14c0-0.6-0.4-1.1-1-1.3
			c-0.8-0.2-1.6-0.4-2.5-0.5c-0.1-0.3-0.1-0.7-0.2-1c-0.3-1.6-0.5-2.9-1.8-3.1h-0.1c-0.6,0-1.1,0.4-1.3,1c-0.2,0.9-0.5,2-0.8,2.6
			h-1.2h-1.1c-0.6-1.3-1.1-2.6-1.5-4C12.9,7.2,12.4,6.9,11.8,6.9L11.8,6.9z"/>
	</g>
</g>
</svg>
