<?xml version="1.0" encoding="utf-8"?>
<!-- Generator: Adobe Illustrator 24.0.0, SVG Export Plug-In . SVG Version: 6.00 Build 0)  -->
<svg version="1.1" id="Layer_1" xmlns="http://www.w3.org/2000/svg" xmlns:xlink="http://www.w3.org/1999/xlink" x="0px" y="0px"
	 viewBox="0 0 48 48" style="enable-background:new 0 0 48 48;" xml:space="preserve">
<style type="text/css">
	.st0{fill:#595959;}
</style>
<title>gear</title>
<g>
	<g id="Calque_1">
		<path class="st0" d="M24,2.1c0.5,0,1,0,1.5,0c0.9,0.1,1.7,0.2,2.6,0.4l1.2,4.6c1.7,0.6,3.3,1.4,4.7,2.4l4.5-1.7
			c1.4,1.2,2.5,2.6,3.5,4.1l-2.4,4.1c0.7,1.6,1.4,3.3,1.7,5.1l4.3,1.9c0,0.9,0,1.7,0,2.6c-0.1,0.9-0.2,1.7-0.4,2.6l-4.6,1.2
			c-0.5,1.7-1.4,3.3-2.4,4.8l1.7,4.5c-1.2,1.4-2.6,2.5-4,3.5l-4.1-2.4c-1.6,0.9-3.3,1.4-5.1,1.7l-1.9,4.3c-0.4,0-0.7,0-1.1,0
			s-1,0-1.5,0c-0.9-0.1-1.7-0.1-2.6-0.4l-1.2-4.6c-1.7-0.5-3.3-1.4-4.7-2.4l-4.7,1.7c-1.4-1.2-2.5-2.6-3.5-4.1L8.2,32
			c-0.9-1.6-1.4-3.3-1.7-5.1l-4.3-1.9c0-0.9,0-1.7,0-2.7c0.1-0.9,0.2-1.7,0.4-2.6l4.6-1.2c0.5-1.7,1.4-3.3,2.4-4.7L7.8,9.3
			c1.2-1.4,2.6-2.5,4-3.5l4.1,2.4c1.6-0.7,3.3-1.4,5.1-1.6l1.9-4.3L24,2.1 M24,32.1c4.5,0.1,8.2-3.3,8.3-7.8S29,16.1,24.5,16l0,0H24
			c-4.5-0.1-8.2,3.3-8.3,7.8c-0.1,4.5,3.3,8.2,7.8,8.3H24 M24,0.5h-1.2c-0.6,0-1.1,0.4-1.4,1L20,5.1c-1.4,0.2-2.6,0.7-3.8,1.2
			l-3.5-2c-0.2-0.1-0.5-0.1-0.9-0.1c-0.2,0-0.6,0.1-0.9,0.2c-1.6,1.1-3,2.4-4.3,3.7C6.2,8.7,6.1,9.3,6.3,9.9l1.4,3.6
			c-0.7,1.1-1.4,2.4-1.9,3.6l-3.7,1c-0.6,0.1-1,0.6-1.1,1.2c-0.1,0.9-0.4,1.9-0.4,2.9c0,1,0,2,0,2.9c0,0.6,0.4,1.1,1,1.4l3.6,1.5
			c0.2,1.4,0.7,2.6,1.2,3.8l-1.9,3.5c-0.4,0.5-0.4,1.2,0,1.7c0.9,1.7,2.1,3.1,3.6,4.5c0.2,0.2,0.7,0.5,1.1,0.4c0.2,0,0.4,0,0.6-0.1
			l3.6-1.4c1.1,0.7,2.4,1.4,3.6,1.9l1,3.7c0.1,0.6,0.6,1,1.2,1.2c1,0.2,1.9,0.4,2.9,0.4c0.5,0,1,0,1.6,0H25c0.6,0,1.2-0.4,1.5-0.9
			l1.6-3.6c1.4-0.2,2.6-0.7,3.8-1.2l3.3,1.9c0.2,0.1,0.5,0.2,0.9,0.2s0.6-0.1,0.9-0.2c1.6-1.1,3.1-2.4,4.3-3.7
			c0.4-0.5,0.5-1.1,0.2-1.7l-1.4-3.6c0.7-1.1,1.4-2.4,1.9-3.6l3.7-1c0.6-0.1,1.1-0.6,1.2-1.2c0.1-1,0.4-1.9,0.4-2.9s0-2,0-2.9
			c0-0.6-0.4-1.1-1-1.4L43,20.1c-0.2-1.4-0.7-2.6-1.2-3.8l1.9-3.3c0.2-0.5,0.2-1.2,0-1.7c-1.1-1.6-2.4-3.1-3.7-4.3
			c-0.2-0.2-0.7-0.4-1.1-0.4c-0.2,0-0.4,0-0.6,0.1l-3.7,1.4c-1.1-0.7-2.4-1.4-3.6-1.9l-1-3.7c-0.1-0.6-0.6-1-1.2-1.1
			c-1-0.2-1.9-0.4-2.9-0.5C25.2,0.5,24.7,0.5,24,0.5z M24,30.5h-0.5c-3.6-0.1-6.3-3.1-6.2-6.7c0.1-3.6,3.1-6.3,6.7-6.2h0.5
			c3.5,0.2,6.2,3.2,6,6.8C30.3,27.9,27.5,30.5,24,30.5z"/>
	</g>
</g>
</svg>
