<?xml version="1.0" encoding="utf-8"?>
<!-- Generator: Adobe Illustrator 24.0.0, SVG Export Plug-In . SVG Version: 6.00 Build 0)  -->
<svg version="1.1" id="Layer_1" xmlns="http://www.w3.org/2000/svg" xmlns:xlink="http://www.w3.org/1999/xlink" x="0px" y="0px"
	 viewBox="0 0 66.3 48" style="enable-background:new 0 0 66.3 48;" xml:space="preserve">
<style type="text/css">
	.st0{fill:#595959;}
</style>
<title>gears</title>
<g id="Multimedia_92_">
	<path class="st0" d="M22.6,47.1c-0.3,0-0.7-0.1-0.8-0.4L20.1,44c-1.2,0-2.3-0.1-3.5-0.4l-2,2.3c-0.3,0.3-0.7,0.4-1.1,0.1l-2.6-1.4
		c-0.4-0.1-0.5-0.7-0.4-1.1l0.7-3.1c-0.8-0.8-1.6-1.8-2.2-2.7H5.7l0,0c-0.4,0-0.8-0.3-0.9-0.7L4,34.4c-0.1-0.4,0-0.8,0.4-1.1
		l2.7-1.8c0-1.2,0.1-2.3,0.4-3.5L5,25.8c-0.3-0.3-0.4-0.7-0.1-1.1l1.4-2.6c0.1-0.3,0.5-0.5,0.9-0.4l3.1,0.7c0.8-0.8,1.8-1.6,2.8-2.2
		V17c0-0.4,0.3-0.8,0.7-0.9l2.7-0.8c0.4-0.1,0.8,0,1.1,0.4l1.8,2.7c1.2,0,2.3,0.1,3.5,0.4l2.3-2.3c0.3-0.3,0.7-0.4,1.1-0.1l2.6,1.4
		c0.4,0.1,0.5,0.7,0.4,1.1l-0.7,3.1c0.8,0.8,1.6,1.8,2.2,2.7H34c0.4,0,0.8,0.3,0.9,0.7l0.8,2.7c0.1,0.4,0,0.8-0.4,1.1l-2.7,1.8
		c0,1.2-0.1,2.4-0.4,3.5l2.3,2.3c0.3,0.3,0.4,0.7,0.1,1.1l-1.4,2.6c-0.1,0.4-0.7,0.5-1.1,0.4L29.1,40c-0.8,0.8-1.8,1.6-2.7,2.3v3.2
		c0,0.4-0.3,0.8-0.7,0.9L23,47.3C22.9,47.1,22.8,47.1,22.6,47.1z M20.7,42.1c0.3,0,0.7,0.1,0.8,0.4l1.6,2.6l1.4-0.4v-3.1
		c0-0.4,0.1-0.7,0.5-0.8c1.2-0.7,2.2-1.5,3.1-2.6c0.3-0.3,0.5-0.4,0.9-0.3l3,0.7l0.7-1.2l-2.3-2.2c-0.3-0.3-0.4-0.5-0.3-0.9
		c0.4-1.4,0.5-2.6,0.4-3.9c0-0.4,0.1-0.7,0.4-0.8l2.6-1.6l-0.4-1.4h-3.1l0,0c-0.4,0-0.7-0.1-0.8-0.5c-0.7-1.2-1.5-2.2-2.6-3.1
		c-0.3-0.3-0.4-0.5-0.3-0.9l0.7-3l-1.2-0.7l-2.2,2.2c-0.3,0.3-0.5,0.4-0.9,0.3c-1.4-0.4-2.6-0.5-3.9-0.4c-0.4,0-0.7-0.1-0.8-0.4
		l-1.6-2.6L15,17.7v3.1c0,0.4-0.1,0.7-0.5,0.8c-1.2,0.7-2.2,1.5-3.1,2.4c-0.3,0.3-0.5,0.4-0.9,0.3l-3-0.7l-0.7,1.2L9,27.1
		c0.3,0.3,0.4,0.5,0.3,0.9c-0.4,1.4-0.5,2.6-0.4,3.9c0,0.4-0.1,0.7-0.4,0.8l-2.6,1.6l0.4,1.4h3.1c0.4,0,0.7,0.1,0.8,0.5
		c0.7,1.2,1.5,2.2,2.6,3.1c0.3,0.3,0.4,0.5,0.3,0.9l-0.7,3l1.2,0.7l2.2-2.2c0.3-0.3,0.5-0.4,0.9-0.3C17.9,41.9,19.2,42.1,20.7,42.1
		C20.6,42.1,20.6,42.1,20.7,42.1z M19.8,35.6h-0.1l0,0c-1.2,0-2.3-0.5-3-1.4c-0.8-0.8-1.2-2-1.2-3.1c0.1-2.4,2.2-4.3,4.6-4.2
		s4.3,2.2,4.2,4.6c0,1.2-0.5,2.3-1.4,3C21.8,35.2,20.9,35.6,19.8,35.6z M19.6,28.7c-1.4,0-2.4,1.1-2.6,2.4c0,0.7,0.3,1.4,0.7,1.8
		c0.4,0.5,1.1,0.8,1.8,0.8l0,0c0.7,0,1.4-0.3,1.8-0.7c0.5-0.4,0.8-1.1,0.8-1.8C22.4,29.9,21.3,28.7,19.6,28.7
		C19.8,28.7,19.8,28.7,19.6,28.7z"/>
	<path class="st0" d="M49.5,32.2c-0.3,0-0.7-0.1-0.8-0.4L47,29.1c-1.2,0-2.3-0.1-3.5-0.4L41.2,31c-0.3,0.3-0.7,0.4-1.1,0.1l-2.6-1.4
		c-0.4-0.1-0.5-0.7-0.4-1.1l0.7-3.1c-0.8-0.8-1.6-1.8-2.2-2.7h-3.2l0,0c-0.4,0-0.8-0.3-0.9-0.7l-0.8-2.7c-0.1-0.4,0-0.8,0.4-1.1
		l2.7-1.8c0-1.2,0.1-2.3,0.4-3.5l-2.3-2.3c-0.3-0.3-0.4-0.7-0.1-1.1L33,7.2c0.1-0.4,0.7-0.5,1.1-0.4l3.1,0.7c0.7-0.7,1.6-1.5,2.7-2
		V2.2c0-0.4,0.3-0.8,0.7-0.9l2.7-0.8c0.4-0.1,0.8,0,1.1,0.4l1.8,2.7c1.2,0,2.3,0.1,3.5,0.4L52,1.6c0.1-0.3,0.5-0.4,0.9-0.3l2.6,1.4
		c0.4,0.1,0.5,0.7,0.4,1.1l-0.7,3.1c0.8,0.8,1.6,1.8,2.2,2.7h3.2l0,0c0.4,0,0.8,0.3,0.9,0.7l0.8,2.7c0.1,0.4,0,0.8-0.4,1.1l-2.7,1.8
		c0,1.2-0.1,2.4-0.4,3.5l2.3,2.3c0.3,0.3,0.4,0.7,0.1,1.1L60,25.3c-0.1,0.4-0.7,0.5-1.1,0.4L55.8,25c-0.8,0.8-1.8,1.6-2.7,2.3v3.2
		c0,0.4-0.3,0.8-0.7,0.9l-2.7,0.8C49.7,32.2,49.5,32.2,49.5,32.2z M47.5,27.2c0.3,0,0.7,0.1,0.8,0.4l1.6,2.6l1.4-0.4v-3.1
		c0-0.4,0.1-0.7,0.5-0.8c1.2-0.7,2.2-1.5,3.1-2.6c0.3-0.3,0.5-0.4,0.9-0.3l3,0.7l0.7-1.2l-2.3-2.2C57,20,56.9,19.7,57,19.3
		c0.4-1.4,0.5-2.6,0.4-3.9c0-0.4,0.1-0.7,0.4-0.8l2.6-1.6L60,11.6h-3.1l0,0c-0.4,0-0.7-0.1-0.8-0.5c-0.7-1.2-1.5-2.2-2.6-3.1
		c-0.3-0.3-0.4-0.5-0.3-0.9l0.7-3l-1.2-0.7l-2.2,2.2c-0.3,0.3-0.5,0.4-0.9,0.3c-1.2-0.4-2.6-0.5-3.9-0.4c-0.4,0-0.7-0.1-0.8-0.4
		l-1.6-2.6l-1.4,0.4v3.1c0,0.4-0.1,0.7-0.5,0.8c-1.2,0.7-2.2,1.5-3.1,2.4c-0.3,0.3-0.5,0.4-0.9,0.3l-3-0.7L33.6,10l2.2,2.2
		c0.3,0.3,0.4,0.5,0.3,0.9c-0.4,1.4-0.5,2.6-0.4,3.9c0,0.4-0.1,0.7-0.4,0.8l-2.6,1.6l0.4,1.4h3.1c0.4,0,0.7,0.1,0.8,0.5
		c0.7,1.2,1.5,2.2,2.6,3.1c0.3,0.3,0.4,0.5,0.3,0.9l-0.7,3l1.2,0.7l2.2-2.2c0.3-0.3,0.5-0.4,0.9-0.3C44.7,27.2,46,27.3,47.5,27.2
		C47.4,27.2,47.4,27.2,47.5,27.2z M46.6,20.7h-0.1l0,0c-2.4-0.1-4.3-2.2-4.2-4.6c0-1.2,0.5-2.3,1.4-3c0.8-0.8,2-1.2,3.1-1.2
		c1.2,0,2.3,0.5,3,1.4c0.8,0.8,1.2,2,1.2,3.1C50.8,18.8,48.9,20.7,46.6,20.7z M46.4,18.8c1.4,0,2.6-1.1,2.6-2.4
		c0-0.7-0.3-1.4-0.7-1.8c-0.4-0.5-1.1-0.8-1.8-0.8c-0.7,0-1.4,0.3-1.8,0.7c-0.5,0.4-0.8,1.1-0.8,1.8C43.9,17.6,44.9,18.8,46.4,18.8
		L46.4,18.8z"/>
</g>
</svg>
