<svg xmlns="http://www.w3.org/2000/svg" viewBox="0 0 46.38 31.31"><defs><style>.cls-1{fill:#595959;}</style></defs><title>handshake</title><g id="Layer_2" data-name="Layer 2"><g id="Calque_1" data-name="Calque 1"><path class="cls-1" d="M45.55,6.35l-4.26-5A3.75,3.75,0,0,0,36,.88L33.8,2.6l-.13,0c-1.48-.47-6.45-2-9-1.62a7.39,7.39,0,0,0-1.3.32l-.08,0-.09,0C19.5.09,17.73.8,16.31,1.37l-.06,0a5.55,5.55,0,0,1-2.18.52h-1c-2.38,0-3,0-3.53-.39C7.49,0,5.83.1,4.29,1.72L.83,6.44C-.8,8.22.38,10.72,1,11.71l1.83,3.14a3.59,3.59,0,0,0,1.1.71l.4.18L2.54,17.46a2.25,2.25,0,0,0,0,3.17l.87.87a2.08,2.08,0,0,0,.83.53l.22.08,0,.23A2.24,2.24,0,0,0,5,24.48l.86.88A2.22,2.22,0,0,0,7.42,26a2.13,2.13,0,0,0,.84-.16l.23-.09.14.22a2.24,2.24,0,0,0,.51.8l.86.88a2.27,2.27,0,0,0,2.57.44l.24-.12.15.22a2.25,2.25,0,0,0,.48.75l.86.87a2.31,2.31,0,0,0,3.17,0l.75-.74,1.37,1.15a3,3,0,0,0,1.22.69l.08,0a3,3,0,0,0,3.5-.6,2.87,2.87,0,0,0,.58-.93l.16-.41.64.6a2.81,2.81,0,0,0,1.21.68l.08,0a3,3,0,0,0,3.5-.59,2.94,2.94,0,0,0,.71-1.35l.07-.29.28.06a3.14,3.14,0,0,0,1.13.22,2.94,2.94,0,0,0,2.14-.93,2.88,2.88,0,0,0,.79-2.1,2.76,2.76,0,0,0,0-.37l0-.34H36a2,2,0,0,0,.48,0,3,3,0,0,0,2-.93,3,3,0,0,0-.14-4.15l-1-1,.48-.15a3.77,3.77,0,0,0,1.3-.72L45,11.87a4.18,4.18,0,0,0,1.37-2.64A3.7,3.7,0,0,0,45.55,6.35ZM5,21a1.06,1.06,0,0,1-.76-.32l-.86-.87a1.06,1.06,0,0,1-.31-.75,1.11,1.11,0,0,1,.32-.75L8,13.79a1.07,1.07,0,0,1,.74-.3,1,1,0,0,1,.76.31l.86.88a1,1,0,0,1,.19,1.2l-.05.07-5,4.93A1.06,1.06,0,0,1,5,21Zm3.2,3.55a1.07,1.07,0,0,1-1.5,0l-.86-.88a1.06,1.06,0,0,1,0-1.49l.36-.35a2.85,2.85,0,0,0,.35-.28L11.12,17a1.8,1.8,0,0,0,.26-.3l.48-.49a1.09,1.09,0,0,1,1.5,0l.86.88a1.05,1.05,0,0,1,.3.75,1,1,0,0,1-.31.74Zm4.16,2.31a1.08,1.08,0,0,1-.75.3,1.05,1.05,0,0,1-.75-.31L10,26a1.06,1.06,0,0,1,0-1.49l4.17-4.11a1.09,1.09,0,0,1,1.5,0l.86.87a1.07,1.07,0,0,1,0,1.5Zm6.34.15-2,2a1.09,1.09,0,0,1-.73.3,1,1,0,0,1-.77-.32l-.86-.87a1.07,1.07,0,0,1,0-1.5l2.05-2a1.06,1.06,0,0,1,1.49,0l.86.88a1,1,0,0,1,.31.75A1.09,1.09,0,0,1,18.68,27Zm19-5.55a2,2,0,0,1-.54,1.44,2,2,0,0,1-1.4.63,3.07,3.07,0,0,1-.42,0l-.06,0a2.07,2.07,0,0,1-.32-.23c-3.11-2.95-5-4.79-5.71-5.48l-.06-.06-.12,0a.77.77,0,0,0-.42-.14.72.72,0,0,0-.73.7l.29.62,5.26,4.92a2,2,0,0,1,.63,1.4,2,2,0,0,1-.54,1.43,2,2,0,0,1-1.82.61l-.07,0a1.87,1.87,0,0,1-.31-.24l-.24-.25a2.87,2.87,0,0,0-.73-1.08l-4.78-4.15-.12,0a.77.77,0,0,0-.3-.06.7.7,0,0,0-.72.69.7.7,0,0,0,.28.55l.18.14v0L29.72,27l0,.09a2.45,2.45,0,0,1,.05.35,2,2,0,0,1-2.36,2.05l-.07,0a2.07,2.07,0,0,1-.32-.23l-2.11-2c-1.12-1.23-1.53-1.66-1.68-1.81a.74.74,0,0,0-1.31.43.69.69,0,0,0,.43.63l.07.05,1.1,1,0,.07a2,2,0,0,1-1.95,2.51l-.35,0-.1,0a1.73,1.73,0,0,1-.29-.23L19,28.31l.47-.47a2.24,2.24,0,0,0,0-3.16l-.87-.88a2.24,2.24,0,0,0-.72-.49l-.23-.1.06-.25a2.28,2.28,0,0,0-.42-2.54l-.86-.87a2.11,2.11,0,0,0-.78-.51L15.49,19l0-.25a2.2,2.2,0,0,0,.17-.83,2.23,2.23,0,0,0-.64-1.59l-.86-.87a2.19,2.19,0,0,0-1.58-.67,2.37,2.37,0,0,0-.61.08l-.23.06-.12-.2a2.24,2.24,0,0,0-.51-.83L10.29,13a2.22,2.22,0,0,0-1.58-.66A2.27,2.27,0,0,0,7.12,13L5.64,14.41H5.55l-.2,0a2.25,2.25,0,0,1-1.49-.55l-.06-.06L1.94,10.65C1.3,9.33,1,8.4,1.87,7.43L5.34,2.71c.9-1,1.69-1.23,3.34,0,.89.65,2.07.65,4.44.67h.94a7,7,0,0,0,2.79-.65,6.67,6.67,0,0,1,3.48-.61l.89.09-.77.46a10.07,10.07,0,0,0-3.82,3.61,3.07,3.07,0,0,0-.06,3c1.19,2.18,3.63,1.18,5.6.37,1.69-.69,2.93-1.14,3.5-.57,2.78,2.83,9.08,9.13,9.67,9.43l.06,0,1.69,1.57A2,2,0,0,1,37.72,21.45Zm7.2-12.4a2.64,2.64,0,0,1-.9,1.74l-5.88,5.92a2.36,2.36,0,0,1-2.64.23l-1.35-1.27c-3.84-4-6.35-6.54-7.46-7.66A2.27,2.27,0,0,0,25,7.32a9.57,9.57,0,0,0-3.33.93c-2.53,1-3.35,1.1-3.8.27a1.68,1.68,0,0,1,.08-1.63c1.08-2.12,5-4.26,7-4.53,2.16-.29,7.12,1.15,8.85,1.73l.39.13L36.94,2a2.31,2.31,0,0,1,3.26.27l4.26,5A2.29,2.29,0,0,1,44.92,9.05Z"/></g></g></svg>