<?xml version="1.0" encoding="utf-8"?>
<!-- Generator: Adobe Illustrator 24.0.0, SVG Export Plug-In . SVG Version: 6.00 Build 0)  -->
<svg version="1.1" id="Layer_1" xmlns="http://www.w3.org/2000/svg" xmlns:xlink="http://www.w3.org/1999/xlink" x="0px" y="0px"
	 viewBox="0 0 48 48" style="enable-background:new 0 0 48 48;" xml:space="preserve">
<style type="text/css">
	.st0{fill:#595959;}
</style>
<title>lightbulb</title>
<g>
	<g id="Calque_1">
		<path class="st0" d="M22,44.8c0,0.2-0.1,0.3-0.1,0.5c0,1.3,1,2.3,2.3,2.3s2.3-1,2.3-2.3c0-0.2,0-0.4-0.1-0.5H22z"/>
		<rect x="18.6" y="38.1" class="st0" width="11.2" height="1.3"/>
		<rect x="23.5" y="26.5" class="st0" width="1.3" height="12.2"/>
		<path class="st0" d="M24.2,27.1c-2.1,0-3.7-1.7-3.7-3.7c0-0.5,0.1-1.1,0.5-1.5c0.7-0.4,1.5-0.6,2.3-0.4c0.6,0,1.2,0,1.9,0
			c0.8-0.2,1.6,0,2.3,0.4c0.4,0.4,0.6,0.9,0.5,1.5C28,25.5,26.3,27.1,24.2,27.1z M22.5,22.9c-0.2,0-0.4,0-0.6,0.1
			c-0.1,0.2-0.1,0.3-0.1,0.5c-0.1,1.4,0.9,2.5,2.3,2.6c1.4,0.1,2.5-0.9,2.6-2.3c0-0.1,0-0.2,0-0.3c0-0.2,0-0.4-0.1-0.5
			c-0.2-0.2-0.8-0.1-1.4-0.1c-0.7,0-1.3,0-2,0L22.5,22.9z"/>
		<path class="st0" d="M16.1,20.4c0-4.7,3.8-8.4,8.4-8.4c-0.1-0.4-0.1-0.8-0.2-1.2c-5.3,0.1-9.4,4.5-9.4,9.7c0,0.3,0,0.6,0,0.9
			c0.4,0.1,0.9,0.2,1.3,0.2C16.1,21.2,16.1,20.8,16.1,20.4z"/>
		<path class="st0" d="M38.1,20.1c0-7.8-6.4-14.2-14.2-14.2S9.8,12.2,9.8,20.1c0,5.6,3.3,10.6,8.3,12.9v9.9c0,1.4,1.1,2.5,2.5,2.5
			l0,0h7.5c1.4,0,2.5-1.1,2.6-2.5c0,0,0,0,0-0.1v-9.9c0-0.1,0-0.2,0-0.3C35.3,30.2,38.2,25.3,38.1,20.1z M29.4,31.8v0.8l0,0
			c0,0.1,0,0.2,0,0.3v10c0,0.7-0.6,1.3-1.3,1.3h-7.5c-0.7,0-1.3-0.6-1.3-1.3v-10c0-0.1,0-0.2,0-0.3l0,0v-0.5
			c-6.6-2.5-9.9-9.9-7.3-16.6s10-10,16.7-7.4c5,1.9,8.2,6.7,8.3,12C36.9,25.1,34,29.7,29.4,31.8z"/>
		<path class="st0" d="M8.2,20.6H5.5c-0.3,0-0.6-0.4-0.5-0.7c0-0.3,0.3-0.5,0.5-0.5h2.7c0.3,0,0.6,0.3,0.6,0.6
			C8.8,20.4,8.5,20.7,8.2,20.6L8.2,20.6z"/>
		<path class="st0" d="M42.6,20.6h-2.7c-0.3,0-0.6-0.3-0.6-0.6c0-0.3,0.3-0.6,0.6-0.6h2.7c0.3,0,0.6,0.3,0.6,0.6
			C43.2,20.4,42.9,20.6,42.6,20.6z"/>
		<path class="st0" d="M5.5,28.2c-0.3,0-0.5-0.2-0.6-0.4c-0.1-0.3,0-0.7,0.3-0.8l0,0l3.9-1.6c0.3-0.1,0.7,0,0.8,0.3
			c0.1,0.3,0,0.7-0.3,0.8l0,0l-3.9,1.6C5.6,28.2,5.6,28.2,5.5,28.2z"/>
		<path class="st0" d="M38.7,14.6c-0.3,0-0.5-0.2-0.6-0.4c-0.1-0.3,0-0.7,0.3-0.8l0,0l3.9-1.6c0.3-0.2,0.7,0,0.8,0.3s0,0.7-0.3,0.8
			h-0.1L38.7,14.6C38.9,14.6,38.8,14.6,38.7,14.6z"/>
		<path class="st0" d="M9.3,14.5c-0.1,0-0.2,0-0.2-0.1l-3.9-1.6c-0.3-0.1-0.5-0.5-0.3-0.8l0,0c0.1-0.3,0.5-0.5,0.8-0.3l3.9,1.6
			c0.3,0.1,0.5,0.5,0.3,0.8l0,0C9.8,14.3,9.6,14.5,9.3,14.5z"/>
		<path class="st0" d="M42.4,28.3c-0.1,0-0.2,0-0.2,0l-3.9-1.6c-0.3-0.1-0.5-0.5-0.3-0.8c0.1-0.3,0.5-0.5,0.8-0.3l3.9,1.6
			c0.3,0.1,0.5,0.5,0.3,0.8C42.9,28.2,42.7,28.3,42.4,28.3z"/>
		<path class="st0" d="M11.8,34.3c-0.2,0-0.3-0.1-0.4-0.2c-0.2-0.2-0.3-0.6,0-0.9l0,0l1.8-2c0.2-0.3,0.6-0.3,0.9-0.1
			c0.3,0.2,0.3,0.6,0.1,0.9l-0.1,0.1l-1.8,2C12.2,34.2,12,34.3,11.8,34.3z"/>
		<path class="st0" d="M35.1,9c-0.2,0-0.3,0-0.5-0.2c-0.2-0.2-0.2-0.6,0-0.9l1.9-2c0.2-0.2,0.6-0.2,0.9,0c0.2,0.2,0.3,0.6,0,0.9l0,0
			l-1.9,2C35.4,9,35.2,9,35.1,9z"/>
		<path class="st0" d="M12.8,9.4c-0.2,0-0.3-0.1-0.4-0.2l-2-2c-0.2-0.2-0.2-0.6,0-0.9c0.2-0.2,0.6-0.3,0.9,0l0,0l2,2
			c0.2,0.2,0.2,0.6,0,0.9C13.1,9.4,13,9.4,12.8,9.4z"/>
		<path class="st0" d="M37,33.8c-0.2,0-0.3-0.1-0.4-0.2l-2-1.9c-0.2-0.2-0.3-0.6,0-0.9l0,0c0.2-0.2,0.6-0.2,0.9,0l1.9,1.9
			c0.2,0.2,0.2,0.6,0,0.9C37.3,33.7,37.2,33.8,37,33.8z"/>
		<path class="st0" d="M29.3,5.7c-0.1,0-0.1,0-0.2,0c-0.4-0.1-0.5-0.5-0.4-0.8l0,0L30.1,1c0.1-0.3,0.4-0.5,0.8-0.4l0,0
			c0.3,0.1,0.5,0.5,0.4,0.8l0,0l-1.4,4C29.8,5.5,29.5,5.7,29.3,5.7z"/>
		<path class="st0" d="M18,5.9c-0.3,0-0.5-0.2-0.6-0.4l-1.4-4c-0.1-0.3,0-0.7,0.4-0.8l0,0c0.3-0.1,0.7,0,0.8,0.4l0,0l1.4,4
			c0.1,0.3,0,0.7-0.4,0.8l0,0C18.2,5.9,18.1,5.9,18,5.9z"/>
		<path class="st0" d="M23.9,4.8L23.9,4.8c-0.3,0-0.6-0.3-0.6-0.6V1.3c0-0.3,0.3-0.6,0.6-0.6l0,0l0,0c0.3,0,0.6,0.3,0.6,0.6v2.9
			C24.5,4.5,24.3,4.8,23.9,4.8L23.9,4.8z"/>
	</g>
</g>
</svg>
