<?xml version="1.0" encoding="utf-8"?>
<!-- Generator: Adobe Illustrator 23.1.1, SVG Export Plug-In . SVG Version: 6.00 Build 0)  -->
<svg version="1.1" id="Layer_1" xmlns="http://www.w3.org/2000/svg" xmlns:xlink="http://www.w3.org/1999/xlink" x="0px" y="0px"
	 viewBox="0 0 26.8 37.6" style="enable-background:new 0 0 26.8 37.6;" xml:space="preserve">
<style type="text/css">
	.st0{fill:#595959;}
</style>
<title>lock</title>
<g>
	<g id="Calque_1">
		<path class="st0" d="M23,14.9V9.6C23,4.3,18.7,0,13.4,0C8.2,0,3.9,4.3,3.9,9.6v5.3H0v22.8h26.8V14.9H23z M5.2,9.6
			c0-4.5,3.7-8.2,8.2-8.2s8.2,3.7,8.2,8.2v5.3h-2.6v-4.6c0-3.1-2.5-5.7-5.6-5.7s-5.7,2.5-5.7,5.7v4.6H5.2V9.6z M17.7,14.9H9.1v-4.6
			C9.1,7.9,11,6,13.4,6c2.4,0,4.3,1.9,4.3,4.3V14.9z M25.5,16.2v16.9H1.3V16.2H25.5z M1.3,36.3v-1.8h24.2v1.8H1.3z"/>
		<path class="st0" d="M11.5,25.3v5h3.8v-5c1.7-1,2.3-3.3,1.2-5s-3.3-2.3-5-1.2s-2.3,3.3-1.2,5C10.6,24.6,11,25,11.5,25.3z
			 M13.4,19.9c1.3,0,2.3,1,2.4,2.2c0,0.9-0.5,1.8-1.4,2.2L14,24.5V29h-1.2v-4.5l-0.4-0.2c-1.2-0.5-1.7-1.9-1.2-3
			C11.7,20.4,12.5,19.9,13.4,19.9z"/>
	</g>
</g>
</svg>
