<?xml version="1.0" encoding="utf-8"?>
<!-- Generator: Adobe Illustrator 23.1.1, SVG Export Plug-In . SVG Version: 6.00 Build 0)  -->
<svg version="1.1" id="Layer_1" xmlns="http://www.w3.org/2000/svg" xmlns:xlink="http://www.w3.org/1999/xlink" x="0px" y="0px"
	 viewBox="0 0 30.5 33.7" style="enable-background:new 0 0 30.5 33.7;" xml:space="preserve">
<style type="text/css">
	.st0{fill:#595959;}
</style>
<title>male</title>
<g>
	<g id="Calque_1">
		<path class="st0" d="M29.8,33.7c-0.3,0-0.6-0.2-0.6-0.5l-1-3.7L20.5,25c-0.3-0.2-0.5-0.5-0.3-0.9c0.2-0.3,0.5-0.5,0.9-0.3
			c0,0,0.1,0,0.1,0.1l7.9,4.7c0.2,0.1,0.3,0.2,0.3,0.4l1,4c0.1,0.3-0.1,0.7-0.4,0.8c0,0,0,0,0,0C29.9,33.8,29.9,33.8,29.8,33.7z"/>
		<path class="st0" d="M0.7,33.6H0.5c-0.4-0.1-0.6-0.4-0.5-0.8c0,0,0,0,0,0l1-4c0-0.2,0.2-0.3,0.3-0.4l7.9-4.7
			c0.3-0.2,0.8-0.1,1,0.2c0.2,0.3,0.1,0.8-0.2,1l0,0l-7.7,4.6l-1,3.7C1.2,33.3,0.9,33.5,0.7,33.6z"/>
		<path class="st0" d="M15.6,1.3c6,0,10.6,5.2,7.4,11.4c0.7,0.1,1.2,1,1.2,2s-0.6,2-1.4,2c-0.1,0-0.2,0-0.3,0
			c-1,3.8-3.9,7.5-7.2,7.5s-6.2-3.7-7.2-7.5c-0.8,0-1.4-0.9-1.4-2c-0.1-0.8,0.3-1.5,1-1.9c0-0.2,0-0.4,0-0.6
			c-0.3-0.6-1.5-0.7-1.5-3.8c0-1.9,1.1-4.1,3-4.7C10.5,2.4,9.6,1.3,15.6,1.3 M15.6,0c-4.9,0-5.9,0.7-6.9,2.2
			C8.6,2.4,8.5,2.5,8.4,2.6C6.2,3.7,4.8,6,4.9,8.4c-0.1,1.4,0.3,2.9,1.2,4c-0.5,0.7-0.7,1.5-0.7,2.3C5.3,16,6,17.2,7.1,17.8
			c0.6,1.8,1.5,3.5,2.8,5c1.3,1.7,3.3,2.7,5.4,2.8c2.1-0.1,4.1-1.1,5.4-2.8c1.2-1.4,2.2-3,2.8-4.8c1.3-0.5,2.1-1.8,2-3.2
			c0-0.9-0.3-1.8-0.9-2.5c1.1-2.5,1-5.4-0.4-7.8C22.3,1.6,19-0.1,15.6,0L15.6,0z"/>
		<path class="st0" d="M10.4,25.8c-0.1,0-0.1,0-0.2,0c-0.3-0.1-0.6-0.4-0.5-0.8c0,0,0,0,0-0.1l0.8-2.8c0.1-0.4,0.4-0.6,0.8-0.5
			c0.4,0.1,0.6,0.4,0.5,0.8c0,0,0,0.1,0,0.1l-0.8,2.8C11,25.6,10.7,25.8,10.4,25.8z"/>
		<path class="st0" d="M20.1,25.8c-0.3,0-0.6-0.2-0.6-0.5l-0.8-2.8c-0.1-0.4,0.2-0.7,0.5-0.8c0.3-0.1,0.7,0.1,0.8,0.4l0.8,2.8
			c0.1,0.3-0.1,0.7-0.4,0.8c0,0,0,0,0,0L20.1,25.8z"/>
		<path class="st0" d="M15.2,30.5c-0.2,0-0.3-0.1-0.5-0.2l-5.6-5.7c-0.3-0.3-0.3-0.7,0-0.9c0.3-0.3,0.7-0.3,0.9,0l0,0l5.6,5.7
			c0.3,0.3,0.3,0.7,0,0.9C15.6,30.5,15.4,30.6,15.2,30.5z"/>
		<path class="st0" d="M15.2,30.5c-0.2,0-0.3-0.1-0.5-0.2c-0.3-0.3-0.3-0.7,0-0.9c0,0,0,0,0,0l5.6-5.5c0.3-0.3,0.7-0.3,0.9,0
			c0,0,0,0,0,0c0.3,0.3,0.3,0.7,0,0.9l-5.6,5.5C15.6,30.5,15.4,30.5,15.2,30.5z"/>
		<path class="st0" d="M15.2,33.3c-0.4,0-0.7-0.3-0.7-0.7v-2.7c0-0.4,0.3-0.7,0.7-0.7c0.4,0,0.7,0.3,0.7,0.7v2.7
			C15.9,33,15.6,33.3,15.2,33.3z"/>
		<path class="st0" d="M7.7,13.5c-0.1,0-0.1,0-0.2,0C7.1,13.4,7,13,7.1,12.6c0.6-1.7,1.9-3.1,3.5-3.8c1-0.6,2.3-0.4,3.2,0.3
			c0.5,0.4,1,0.6,1.6,0.7c0.5,0.1,0.9,0,1.3-0.3c0.7-0.6,1.4-1,3.4-0.7c3.1,0.4,3.6,3.8,3.6,3.9c0.1,0.3-0.2,0.7-0.5,0.7
			c0,0,0,0,0,0c-0.4,0.1-0.7-0.2-0.7-0.5c0,0,0,0,0,0c0-0.1-0.4-2.5-2.5-2.8c-1.6-0.2-2,0.1-2.4,0.4c-0.6,0.6-1.4,0.8-2.3,0.6
			c-0.8-0.1-1.5-0.4-2.1-0.9c-0.5-0.5-1.3-0.6-1.9-0.2c-1.3,0.6-2.3,1.7-2.8,3C8.2,13.3,8,13.5,7.7,13.5z"/>
	</g>
</g>
</svg>
