<?xml version="1.0" encoding="utf-8"?>
<!-- Generator: Adobe Illustrator 23.1.1, SVG Export Plug-In . SVG Version: 6.00 Build 0)  -->
<svg version="1.1" id="Layer_1" xmlns="http://www.w3.org/2000/svg" xmlns:xlink="http://www.w3.org/1999/xlink" x="0px" y="0px"
	 viewBox="0 0 108.7 85.8" style="enable-background:new 0 0 108.7 85.8;" xml:space="preserve">
<style type="text/css">
	.st0{fill:#595959;}
</style>
<title>megaphone</title>
<g>
	<g id="Calque_1">
		<path class="st0" d="M79.6,3.4c4.2,0,5.2,6.1,5.1,6.1l0,0c0,0,0,54.1,0,60.2c0,3.2-1.9,5-4.8,5s-6.4-1.7-10-5.4
			c-12-12.3-49.1-13.1-49.1-13.1c-9.5,0-17.3-7.7-17.3-17.3s7.7-17.3,17.3-17.3c0,0,2.9,0.2,7.2,0.2c11.6,0,33.8-1.4,42.5-12
			C74.4,5,77.4,3.4,79.6,3.4 M79.6,0C76,0,72.1,2.6,67.8,7.8c-8,9.7-30.5,10.7-39.8,10.7c-4.2,0-7-0.2-7-0.2h-0.2
			C9.3,18.3,0,27.6,0,39s9.3,20.7,20.7,20.7c9.9,0.2,37.6,2.8,46.7,12c4,4.1,8.5,6.4,12.5,6.4c2.2,0.1,4.3-0.8,5.9-2.3
			c1.6-1.6,2.4-3.8,2.3-6.1c0-6.1,0-59.7,0-60.2l0,0c-0.1-1.8-0.7-3.6-1.6-5.2C85.2,1.7,82.5,0,79.6,0L79.6,0z"/>
		<path class="st0" d="M40,57.5c-0.9,0-1.7-0.8-1.7-1.7V21.7c-0.1-0.9,0.6-1.8,1.6-1.8c0.9-0.1,1.8,0.6,1.8,1.6c0,0.1,0,0.2,0,0.3
			v34.1C41.7,56.8,40.9,57.5,40,57.5C40,57.5,40,57.5,40,57.5z"/>
		<path class="st0" d="M73.5,74.3c-0.9,0-1.7-0.8-1.7-1.7v-34c-0.1-0.9,0.6-1.8,1.6-1.8c0.9-0.1,1.8,0.6,1.8,1.6c0,0.1,0,0.2,0,0.3
			v34C75.2,73.5,74.4,74.3,73.5,74.3L73.5,74.3z"/>
		<path class="st0" d="M107,41.1H94.6c-0.9-0.1-1.6-0.9-1.6-1.8c0.1-0.8,0.7-1.5,1.6-1.6H107c0.9-0.1,1.8,0.6,1.8,1.6
			c0.1,0.9-0.6,1.8-1.6,1.8C107.2,41.1,107.1,41.1,107,41.1z"/>
		<path class="st0" d="M94.6,22.3c-0.5,0-1-0.3-1.4-0.7c-0.6-0.7-0.4-1.8,0.3-2.4c0,0,0,0,0,0l8.7-6.5c0.8-0.5,1.9-0.2,2.3,0.6
			c0.4,0.7,0.3,1.5-0.3,2.1L95.6,22C95.3,22.2,94.9,22.3,94.6,22.3z"/>
		<path class="st0" d="M103.2,64.7c-0.4,0-0.7-0.1-1-0.3l-8.7-6.5c-0.8-0.5-1.1-1.5-0.6-2.3c0.5-0.8,1.5-1.1,2.3-0.6
			c0.1,0.1,0.2,0.1,0.3,0.2l8.7,6.5c0.7,0.6,0.9,1.6,0.3,2.4C104.3,64.5,103.8,64.7,103.2,64.7z"/>
		<path class="st0" d="M38.9,61.6l-3.4-0.3c0.3,7.2,1.9,14.3,4.6,21H28.7C24.9,77,22.1,69,21,59.8c-1.2-0.2-2.4-0.3-3.5-0.5
			c1.1,10,4,18.8,8.3,25c0.6,0.9,1.7,1.5,2.8,1.5H40c1.9,0,3.4-1.5,3.4-3.4c0-0.4-0.1-0.8-0.2-1.2C40.7,74.9,39.2,68.3,38.9,61.6z"
			/>
	</g>
</g>
</svg>
