<?xml version="1.0" encoding="utf-8"?>
<!-- Generator: Adobe Illustrator 23.1.1, SVG Export Plug-In . SVG Version: 6.00 Build 0)  -->
<svg version="1.1" id="Layer_1" xmlns="http://www.w3.org/2000/svg" xmlns:xlink="http://www.w3.org/1999/xlink" x="0px" y="0px"
	 viewBox="0 0 39.2 33.2" style="enable-background:new 0 0 39.2 33.2;" xml:space="preserve">
<style type="text/css">
	.st0{fill:#595959;}
</style>
<title>monitor</title>
<g>
	<g id="Calque_1">
		<path class="st0" d="M17.4,24.1c0,0.4,0.3,0.7,0.7,0.7h3.1c0.4,0,0.8-0.2,0.8-0.6c0-0.4-0.2-0.8-0.6-0.8c-0.1,0-0.1,0-0.2,0h-3.1
			C17.7,23.4,17.4,23.7,17.4,24.1C17.4,24.1,17.4,24.1,17.4,24.1z"/>
		<path class="st0" d="M36.7,0H2.4C1.1,0,0,1.1,0,2.4v22.9c0,1.3,1.1,2.4,2.4,2.4c0,0,0,0,0,0h12.6v1.1l-3.8,3.3
			C11,32.4,11,32.8,11.2,33c0.1,0.1,0.3,0.2,0.4,0.2h16c0.3,0,0.6-0.3,0.6-0.6c0-0.2-0.1-0.3-0.2-0.4l-3.8-3.3v-1.1h12.6
			c1.3,0,2.4-1.1,2.4-2.4c0,0,0,0,0,0V2.4C39.2,1.1,38.1,0,36.7,0z M26,32.1H13.2l2.8-2.4c0.1-0.1,0.2-0.3,0.2-0.4v-1.4H23v1.4
			c0,0.2,0.1,0.3,0.2,0.4L26,32.1z M37.7,25.4c0,0.6-0.4,1-1,1H2.4c-0.6,0-1-0.4-1-1v-3.4h36.3L37.7,25.4z M37.7,20.8H1.4V2.4
			c0-0.6,0.4-1,1-1h34.3c0.6,0,1,0.4,1,1V20.8z"/>
		<path class="st0" d="M30.3,6.5l-5.3,5L22.3,9c-0.2-0.2-0.6-0.2-0.8,0l-5.7,5.6l-2.4-1.9c-0.2-0.2-0.6-0.2-0.8,0l-4.6,4.7
			c-0.2,0.2-0.2,0.6,0,0.8c0.1,0.1,0.3,0.2,0.4,0.2c0.2,0,0.3-0.1,0.4-0.2l4.2-4.4l2.3,1.9c0.2,0.2,0.5,0.2,0.8,0l5.7-5.5l2.6,2.6
			c0.2,0.2,0.6,0.2,0.8,0l5.7-5.4c0.2-0.2,0.2-0.6,0-0.8c0,0,0,0,0,0C30.9,6.4,30.5,6.4,30.3,6.5z"/>
		<path class="st0" d="M32.3,4.7h-6.1c-0.3,0-0.6,0.3-0.6,0.6s0.3,0.6,0.6,0.6c0,0,0,0,0,0l0,0h5.6v5.5c0,0.3,0.2,0.6,0.6,0.6
			c0,0,0,0,0,0l0,0c0.3,0,0.6-0.3,0.6-0.6V5.3c0-0.2-0.1-0.3-0.2-0.4C32.6,4.8,32.5,4.7,32.3,4.7z"/>
	</g>
</g>
</svg>
