<?xml version="1.0" encoding="utf-8"?>
<!-- Generator: Adobe Illustrator 23.1.1, SVG Export Plug-In . SVG Version: 6.00 Build 0)  -->
<svg version="1.1" id="Layer_1" xmlns="http://www.w3.org/2000/svg" xmlns:xlink="http://www.w3.org/1999/xlink" x="0px" y="0px"
	 viewBox="0 0 38.4 38.2" style="enable-background:new 0 0 38.4 38.2;" xml:space="preserve">
<style type="text/css">
	.st0{fill:#595959;}
</style>
<title>presentatation</title>
<g>
	<g id="Calque_1">
		<path class="st0" d="M35.8,0H2.6C1.2,0,0,1.2,0,2.6C0,4,1.2,5.2,2.6,5.2v20.6h16v3.6l-8.2,7.9c-0.2,0.2-0.2,0.6,0,0.8c0,0,0,0,0,0
			c0.1,0.1,0.3,0.2,0.4,0.2c0.1,0,0.3-0.1,0.4-0.2l7.4-7.1v6.7c0,0.3,0.3,0.5,0.7,0.5c0.3,0,0.5-0.2,0.5-0.5V31l7.4,7.1
			c0.1,0.1,0.2,0.2,0.4,0.2c0.3,0,0.6-0.2,0.6-0.5c0-0.2-0.1-0.3-0.2-0.5l-8.2-7.9v-3.6h16V5.2c1.4,0,2.6-1.2,2.6-2.6
			C38.4,1.2,37.2,0,35.8,0L35.8,0z M34.7,24.6h-31V5.2h31L34.7,24.6z M35.8,4H2.6C1.8,4,1.2,3.4,1.2,2.6c0-0.8,0.6-1.4,1.4-1.4h33.2
			c0.8,0,1.4,0.6,1.4,1.4C37.3,3.4,36.6,4,35.8,4z"/>
		<path class="st0" d="M9.4,20.4c0.7,0.1,1.4,0.2,2.2,0.2c3.2,0,6.3-1,8.9-2.8c3-2,5.3-5.7,6.2-7.3l0.5,5c0,0.3,0.3,0.5,0.6,0.5h0
			c0.3,0,0.5-0.3,0.5-0.6c0,0,0,0,0,0l-0.6-6.3c0-0.3-0.2-0.5-0.5-0.5H27l-6.5,0.6c-0.3,0-0.6,0.3-0.5,0.6c0,0.3,0.3,0.6,0.6,0.5
			l0,0h0l5-0.5c-0.9,1.5-3.1,5.1-5.8,6.9c-3,2.1-6.6,2.9-10.2,2.4c-0.3-0.1-0.6,0.1-0.7,0.4c0,0,0,0,0,0C8.9,20.1,9.1,20.4,9.4,20.4
			C9.4,20.4,9.4,20.4,9.4,20.4z"/>
	</g>
</g>
</svg>
