<?xml version="1.0" encoding="utf-8"?>
<!-- Generator: Adobe Illustrator 23.1.1, SVG Export Plug-In . SVG Version: 6.00 Build 0)  -->
<svg version="1.1" id="Layer_1" xmlns="http://www.w3.org/2000/svg" xmlns:xlink="http://www.w3.org/1999/xlink" x="0px" y="0px"
	 viewBox="0 0 44.7 44.7" style="enable-background:new 0 0 44.7 44.7;" xml:space="preserve">
<style type="text/css">
	.st0{fill:#595959;}
</style>
<title>puzzle</title>
<g>
	<g id="Calque_1">
		<path class="st0" d="M44.1,44.7H11.2c-0.3,0-0.6-0.3-0.6-0.6l0,0V31.9c-0.5,0.2-1,0.4-1.5,0.6s-1,0.4-1.5,0.6
			c-1.9,0.5-3.8,0.1-5.4-0.9c-1.4-1-2.3-2.7-2.2-4.5c-0.1-1.8,0.7-3.5,2.2-4.5c1.6-1.1,3.6-1.4,5.4-0.9c0.5,0.2,1,0.4,1.5,0.6
			s1,0.4,1.5,0.6V11.2c0-0.3,0.3-0.6,0.6-0.6l0,0h12.2c-0.2-0.5-0.4-1-0.6-1.5s-0.4-1-0.6-1.5c-0.5-1.9-0.1-3.8,0.9-5.4
			c1-1.4,2.7-2.3,4.5-2.2c1.8-0.1,3.5,0.7,4.5,2.2c1.1,1.6,1.4,3.6,0.9,5.4c-0.2,0.5-0.4,1-0.6,1.5s-0.4,1-0.6,1.5h12.2
			c0.3,0,0.6,0.3,0.6,0.6v0v13.1c0,0.3-0.3,0.6-0.6,0.6c-0.1,0-0.1,0-0.2,0c-0.8-0.2-1.7-0.5-2.5-0.9c-0.5-0.2-0.9-0.4-1.4-0.6
			c-1.5-0.3-3-0.1-4.3,0.8c-1.1,0.8-1.7,2.1-1.6,3.5c-0.1,1.4,0.5,2.7,1.6,3.5c1.3,0.8,2.8,1.1,4.3,0.8c0.5-0.2,0.9-0.4,1.4-0.6
			c0.8-0.4,1.6-0.7,2.5-0.9c0.3-0.1,0.7,0.1,0.8,0.4c0,0.1,0,0.1,0,0.2v13C44.7,44.4,44.4,44.7,44.1,44.7
			C44.1,44.7,44.1,44.7,44.1,44.7z M11.8,43.5h31.7V31.9c-0.5,0.2-1,0.4-1.5,0.6s-1,0.4-1.5,0.6c-1.9,0.5-3.8,0.1-5.4-0.9
			c-1.4-1-2.3-2.7-2.2-4.5c-0.1-1.8,0.7-3.5,2.2-4.5c1.6-1.1,3.6-1.4,5.4-0.9c0.5,0.2,1,0.4,1.5,0.6s1,0.4,1.5,0.6V11.8H31
			c-0.2,0-0.4-0.1-0.5-0.2c-0.1-0.2-0.2-0.4-0.1-0.6c0.2-0.8,0.5-1.7,0.9-2.5c0.2-0.5,0.4-0.9,0.6-1.4c0.4-1.5,0.1-3-0.8-4.3
			c-0.8-1.1-2.1-1.7-3.5-1.6c-1.4-0.1-2.7,0.5-3.5,1.6c-0.8,1.3-1.1,2.8-0.8,4.3c0.2,0.5,0.4,0.9,0.6,1.4c0.4,0.8,0.7,1.6,0.9,2.4
			c0.1,0.3-0.1,0.7-0.4,0.8c-0.1,0-0.1,0-0.2,0H11.8v12.5c0,0.3-0.2,0.5-0.5,0.6c-0.1,0-0.2,0-0.3,0c-0.8-0.2-1.7-0.5-2.5-0.9
			c-0.5-0.2-0.9-0.4-1.4-0.6c-1.5-0.4-3-0.1-4.3,0.8c-1.1,0.8-1.7,2.1-1.6,3.5c-0.1,1.4,0.5,2.7,1.6,3.5C4.2,32,5.7,32.3,7.2,32l0,0
			c0.5-0.2,0.9-0.4,1.4-0.6c0.8-0.4,1.6-0.7,2.4-1c0.1,0,0.2,0,0.3,0c0.3,0.1,0.5,0.3,0.5,0.6L11.8,43.5z"/>
		<path class="st0" d="M15.6,41c-0.3,0-0.6-0.2-0.6-0.6l-0.4-5.7c0-0.3,0.2-0.6,0.6-0.7c0.3,0,0.6,0.2,0.7,0.6l0.3,5.1l15-0.1
			c0.3,0,0.6,0.3,0.6,0.6c0,0.3-0.3,0.6-0.6,0.6l0,0L15.6,41z"/>
	</g>
</g>
</svg>
