<?xml version="1.0" encoding="utf-8"?>
<!-- Generator: Adobe Illustrator 23.1.1, SVG Export Plug-In . SVG Version: 6.00 Build 0)  -->
<svg version="1.1" id="Layer_1" xmlns="http://www.w3.org/2000/svg" xmlns:xlink="http://www.w3.org/1999/xlink" x="0px" y="0px"
	 viewBox="0 0 46 41.6" style="enable-background:new 0 0 46 41.6;" xml:space="preserve">
<style type="text/css">
	.st0{fill:#595959;}
</style>
<title>stopwatch</title>
<g>
	<g id="Calque_1">
		<path class="st0" d="M15.9,29.4c2.9,7,10.9,10.2,17.9,7.3S44,25.7,41,18.8S30.1,8.6,23.1,11.5c-2.6,1.1-4.7,2.9-6.2,5.2l-0.1,0.1
			h-0.2h-5.8c-0.4,0-0.8,0.3-0.8,0.8c0,0.4,0.3,0.8,0.8,0.8H16l-0.1,0.4c-0.5,1.1-0.8,2.3-1,3.5v0.2H0.8c-0.4,0.1-0.7,0.5-0.6,0.9
			c0.1,0.3,0.3,0.5,0.6,0.6h14v0.2c0,1.1,0.2,2.1,0.4,3.1l0.1,0.3H4.8c-0.4,0-0.8,0.3-0.9,0.7c0,0.4,0.3,0.8,0.7,0.9
			c0.1,0,0.1,0,0.2,0h11.1L15.9,29.4z M28.4,12c6.7,0,12.1,5.4,12.2,12.1c0,6.7-5.4,12.1-12.1,12.2c-4.9,0-9.3-2.9-11.2-7.4v-0.1
			v-0.1c0-0.1,0-0.1,0-0.2c0-0.3-0.1-0.5-0.3-0.6l-0.1,0v-0.1c-2-6.4,1.6-13.2,8-15.2C26,12.2,27.2,12,28.4,12z"/>
		<path class="st0" d="M41.5,12.4l-0.2-0.2l1.2-1.1l1.2,1.2c0.1,0.1,0.3,0.2,0.5,0.2l0,0c0.2,0,0.4-0.1,0.5-0.2
			c0.1-0.1,0.2-0.3,0.2-0.5c0-0.2-0.1-0.4-0.2-0.6l-3.3-3.5c-0.3-0.3-0.8-0.2-1.1,0.1c-0.2,0.2-0.2,0.6,0,0.9l1.1,1.3l-1.2,1.1
			L40,10.9c-2.9-2.6-6.6-4.1-10.5-4.4h-0.2V5h3C32.6,5,33,4.7,33,4.3V0.8C33,0.3,32.7,0,32.2,0c0,0,0,0,0,0h-7.6
			c-0.4,0-0.8,0.3-0.8,0.8c0,0,0,0,0,0v3.5c0,0.4,0.3,0.8,0.8,0.8h3v1.5h-0.2c-5,0.3-9.7,2.7-12.8,6.7h2c6-6.5,16.1-7,22.6-1
			s7,16.1,1,22.6s-16.1,7-22.6,1c-0.9-0.8-1.7-1.7-2.3-2.7h-1.8c5.1,8.2,15.9,10.8,24.1,5.7S48.4,23,43.3,14.8
			C42.8,13.9,42.1,13.1,41.5,12.4L41.5,12.4z M25.5,3.5v-2h6v2H25.5z"/>
		<path class="st0" d="M28.4,27c1.7,0,3.1-1.4,3.1-3.1c0-0.2,0-0.5-0.1-0.7V23l0.2-0.1l5-2.9c0.2-0.1,0.3-0.3,0.4-0.5
			c0-0.2,0-0.4-0.1-0.6c-0.2-0.3-0.6-0.5-1-0.3l-5.2,3l-0.1-0.1c-1.3-1.2-3.3-1.1-4.4,0.2C25,23,25,25,26.3,26.2
			C26.9,26.7,27.6,27,28.4,27z M28.4,22.2c0.9,0,1.6,0.7,1.6,1.6s-0.7,1.6-1.6,1.6s-1.6-0.7-1.6-1.6C26.8,23,27.5,22.2,28.4,22.2
			L28.4,22.2z"/>
	</g>
</g>
</svg>
