<?xml version="1.0" encoding="utf-8"?>
<!-- Generator: Adobe Illustrator 23.1.1, SVG Export Plug-In . SVG Version: 6.00 Build 0)  -->
<svg version="1.1" id="Layer_1" xmlns="http://www.w3.org/2000/svg" xmlns:xlink="http://www.w3.org/1999/xlink" x="0px" y="0px"
	 viewBox="0 0 37.5 42" style="enable-background:new 0 0 37.5 42;" xml:space="preserve">
<style type="text/css">
	.st0{fill:#595959;}
</style>
<title>target</title>
<g>
	<g id="Calque_1">
		<path class="st0" d="M22.5,8.8l1.3,3.2L23,13.4l-4.6,9.9c0,0.1,0,0.3,0,0.4c0.1,0.3,0.5,0.4,0.7,0.3c0.1-0.1,0.2-0.2,0.3-0.3
			l4.6-9.8l0.7-1.4l3-1.2c0.1-0.1,0.2-0.2,0.3-0.3l3.8-8.1c0.1-0.2,0.1-0.4-0.1-0.6c-0.1-0.2-0.3-0.2-0.5-0.2l-2.8,0.5l-1.3-2.4
			C27.1,0.1,26.9,0,26.7,0c-0.2,0-0.4,0.1-0.5,0.3l-3.8,8.1C22.4,8.5,22.4,8.7,22.5,8.8L22.5,8.8z M26.8,1.8l0.9,1.8
			c0.1,0.2,0.4,0.3,0.6,0.3l2.1-0.4l-3.2,6.9l-2.5,1l-1.1-2.7L26.8,1.8z"/>
		<path class="st0" d="M36.3,16.8c-1.1-2.9-2.9-5.6-5.2-7.6L30.4,10c7.4,6.5,8.1,17.6,1.6,25s-17.6,8.1-25,1.6S-1,19,5.4,11.6
			C9.3,7.2,15.2,5,21.1,5.8l0.2-1.1C11,3.3,1.6,10.5,0.2,20.7s5.8,19.7,16,21.1s19.7-5.8,21.1-16C37.7,22.8,37.4,19.7,36.3,16.8z"/>
		<path class="st0" d="M20.4,10.6C13.5,9.9,7.4,14.9,6.7,21.8s4.3,13.1,11.2,13.8c6.9,0.7,13.1-4.3,13.8-11.2c0.2-1.9,0-3.8-0.7-5.6
			c-0.7-1.9-1.8-3.6-3.3-4.9l-0.7,0.9c4.6,4.3,4.9,11.6,0.6,16.2S16,35.8,11.3,31.5S6.4,20,10.7,15.3c1.2-1.3,2.8-2.3,4.5-3
			c1.6-0.6,3.4-0.8,5.1-0.6L20.4,10.6z"/>
		<path class="st0" d="M17.2,18.1c0.6-0.2,1.3-0.3,1.9-0.3l0.2-1.1c-3.6-0.1-6.6,2.6-6.8,6.2s2.6,6.6,6.2,6.8
			c3.6,0.1,6.6-2.6,6.8-6.2c0-0.9-0.1-1.7-0.4-2.5c-0.3-0.8-0.8-1.6-1.4-2.2l-0.7,0.9c0.4,0.5,0.8,1.1,1,1.7c1,2.8-0.4,5.9-3.2,6.9
			c-2.8,1-5.9-0.4-6.9-3.2S14.4,19.1,17.2,18.1C17.2,18.1,17.2,18.1,17.2,18.1L17.2,18.1z"/>
	</g>
</g>
</svg>
