<?xml version="1.0" encoding="utf-8"?>
<!-- Generator: Adobe Illustrator 24.0.0, SVG Export Plug-In . SVG Version: 6.00 Build 0)  -->
<svg version="1.1" xmlns="http://www.w3.org/2000/svg" xmlns:xlink="http://www.w3.org/1999/xlink" x="0px" y="0px"
	 viewBox="0 0 35.5 41.2" style="enable-background:new 0 0 35.5 41.2;" xml:space="preserve">
<style type="text/css">
	.st0{fill:#595959;}
</style>
<g id="Layer_1">
	<title>team</title>
	<g>
		<g id="Calque_1">
			<path class="st0" d="M17.8,7.5c2.1,0,3.8-1.7,3.7-3.8c0-2.1-1.7-3.8-3.8-3.7c-2,0-3.7,1.7-3.7,3.8C14,5.8,15.7,7.5,17.8,7.5
				L17.8,7.5z M17.8,1.4c1.3,0,2.4,1.1,2.4,2.4s-1.1,2.4-2.4,2.4s-2.4-1.1-2.4-2.4l0,0C15.4,2.4,16.5,1.4,17.8,1.4L17.8,1.4z"/>
			<path class="st0" d="M27.3,9.2c1.9,0,3.4-1.5,3.4-3.4s-1.5-3.4-3.4-3.4s-3.4,1.5-3.4,3.4l0,0C23.9,7.7,25.4,9.2,27.3,9.2z
				 M27.3,3.8c1.1,0,2.1,0.9,2.1,2s-0.9,2.1-2,2.1s-2.1-0.9-2.1-2l0,0C25.2,4.7,26.1,3.8,27.3,3.8z"/>
			<path class="st0" d="M8.2,9.2c1.9,0,3.4-1.5,3.4-3.4s-1.5-3.4-3.4-3.4S4.8,3.9,4.8,5.8l0,0C4.8,7.7,6.4,9.2,8.2,9.2z M6.2,5.8
				c0-1.1,0.9-2.1,2-2.1s2.1,0.9,2.1,2s-0.9,2.1-2,2.1l0,0C7.1,7.9,6.2,7,6.2,5.8L6.2,5.8z"/>
			<path class="st0" d="M26,24.1V14c0-2.2-1.8-3.9-3.9-3.9h-8.5c-2.2,0-3.9,1.7-3.9,3.9l0,0v10.1c0,1.7,1.2,3.3,2.8,3.8v11.4
				c0,1,0.8,1.9,1.9,1.9l0,0h2.3c0.4,0,0.8-0.1,1.2-0.4c0.3,0.3,0.7,0.4,1.2,0.4h2.3c1,0,1.9-0.8,1.9-1.9l0,0V27.9
				C24.8,27.4,26,25.9,26,24.1z M17.1,26.1v13.1c0,0.3-0.2,0.5-0.5,0.5l0,0h-2.3c-0.3,0-0.5-0.2-0.5-0.5l0,0V22.6h7.9v16.7
				c0,0.3-0.2,0.5-0.5,0.5l0,0H19c-0.3,0-0.5-0.2-0.5-0.5l0,0V26.1H17.1z M21.8,14.8v6.5h-8v-6.5h-1.4v11.7C11.6,26,11,25.1,11,24.1
				V14c0-1.4,1.1-2.5,2.6-2.5H22c1.4,0,2.5,1.1,2.5,2.5l0,0v10.1c0,1-0.6,1.9-1.5,2.3V14.8H21.8z"/>
			<path class="st0" d="M8.9,37.2V25.5H7.5v11.7c0,0.3-0.2,0.5-0.5,0.5l0,0H4.7c-0.3,0-0.5-0.2-0.5-0.5l0,0V15.6H2.8v10.2
				c-0.9-0.4-1.5-1.3-1.5-2.3v-8.7c0-1.4,1.1-2.5,2.5-2.5l0,0h4.8v-1.4H3.9c-2.2,0-3.9,1.8-3.9,3.9v8.7c0,1.7,1.2,3.3,2.8,3.8v9.9
				c0,1,0.8,1.8,1.9,1.8H7c0.4,0,0.8-0.1,1.2-0.4C8.5,38.8,8.9,39,9.3,39H11v-1.4H9.3C9.1,37.6,8.9,37.4,8.9,37.2z"/>
			<path class="st0" d="M31.6,10.9h-4.8v1.4h4.8c1.4,0,2.5,1.1,2.5,2.5l0,0v8.7c0,1-0.6,1.9-1.5,2.3V15.6h-1.4v21.6
				c0,0.3-0.2,0.5-0.5,0.5l0,0h-2.3c-0.3,0-0.5-0.2-0.5-0.5l0,0V25.5h-1.4v11.7c0,0.3-0.2,0.5-0.5,0.5l0,0h-1.7V39H26
				c0.4,0,0.8-0.1,1.2-0.4c0.3,0.3,0.8,0.4,1.2,0.4h2.3c1,0,1.9-0.8,1.9-1.9l0,0v-9.9c1.7-0.5,2.8-2,2.8-3.8v-8.7
				C35.5,12.6,33.8,10.9,31.6,10.9z"/>
		</g>
	</g>
</g>
<g id="Layer_2">
</g>
</svg>
