<?xml version="1.0" encoding="utf-8"?>
<!-- Generator: Adobe Illustrator 24.0.0, SVG Export Plug-In . SVG Version: 6.00 Build 0)  -->
<svg version="1.1" id="Layer_1" xmlns="http://www.w3.org/2000/svg" xmlns:xlink="http://www.w3.org/1999/xlink" x="0px" y="0px"
	 viewBox="0 0 48 48" style="enable-background:new 0 0 48 48;" xml:space="preserve">
<style type="text/css">
	.st0{fill:#595959;}
</style>
<title>thought</title>
<g>
	<path class="st0" d="M38.3,0.5H23.6c-2.4,0-4.3,1.9-4.4,4.2v1.6c-7.9,1-13.9,8.2-13.9,16.9c0,3.9,2,8,5.8,12v10.8
		c0,0.8,0.6,1.4,1.4,1.4h14c0.8,0,1.4-0.6,1.4-1.4v-4.6h5.9c0.8,0,1.5-0.3,2-0.9c0.5-0.6,0.8-1.4,0.8-2.2v-6.9H38
		c0.5,0,2.2,0,2.7-1.3c0.2-0.8,0-1.6-0.6-2.1l-3.4-4.9v-0.1c0-1.1-0.1-2.2-0.3-3.3h2c2.4,0,4.3-1.8,4.4-4.2v-11
		C42.6,2.3,40.7,0.5,38.3,0.5z M32.7,19.9h2.1c0.2,1.1,0.4,2.2,0.4,3.4v0.5l3.8,5.4c0.1,0.1,0.4,0.5,0.3,0.6c0,0.1-0.3,0.3-1.3,0.3
		h-2.8v8.4c0,0.4-0.1,0.8-0.4,1.1c-0.3,0.2-0.6,0.4-0.9,0.4h-7.4v6H12.6l0-11.4c-3.8-3.9-5.8-7.7-5.8-11.4c0-7.8,5.4-14.4,12.3-15.4
		v7.8c0,0,0,0,0,0c0.1,2.4,2,4.3,4.4,4.2h1c0.1,0.5,0,1.1-0.2,1.6c-0.5,1-1.2,1.8-2,2.6c-0.2,0.2-0.3,0.5-0.2,0.8
		c0.1,0.3,0.4,0.5,0.7,0.5c2.3,0,4.5-0.7,6.4-2C30.6,22.4,31.8,21.2,32.7,19.9z M31.7,18.8c-0.9,1.3-2,2.5-3.3,3.4
		c-1.1,0.8-2.3,1.3-3.6,1.5c0.4-0.5,0.7-1,1-1.6c0.5-1,0.5-2.3,0-3.3c-0.1-0.2-0.4-0.4-0.7-0.4h-1.6c-1.6,0-2.9-1.2-2.9-2.7v-11
		C20.7,3.2,22,2,23.6,2h14.7c1.6,0,2.9,1.2,2.9,2.7v10.9c-0.1,1.6-1.4,2.8-2.9,2.7h-5.9C32.1,18.4,31.8,18.5,31.7,18.8z"/>
	<path class="st0" d="M28.1,12.8c-0.4-0.7-1.3-0.9-2.1-0.5c0,0,0,0,0,0c-0.7,0.4-0.9,1.3-0.5,2.1c0.2,0.3,0.5,0.6,0.9,0.7
		c0.1,0,0.2,0,0.4,0c0.3,0,0.5,0,0.8-0.2C28.3,14.4,28.5,13.5,28.1,12.8C28.1,12.8,28.1,12.8,28.1,12.8z"/>
	<path class="st0" d="M32.3,12.8c-0.4-0.7-1.3-0.9-2.1-0.5c-0.3,0.2-0.6,0.5-0.7,0.9c-0.2,0.8,0.3,1.6,1.1,1.8c0.1,0,0.2,0,0.4,0
		c0.3,0,0.5,0,0.8-0.2C32.5,14.4,32.7,13.5,32.3,12.8z"/>
	<path class="st0" d="M34.8,15c0.1,0,0.2,0,0.4,0c0.3,0,0.5-0.1,0.7-0.2c0,0,0,0,0,0c0.5-0.3,0.8-1,0.7-1.5c0,0,0,0,0,0
		c0-0.1-0.1-0.3-0.1-0.4c0,0,0-0.1,0-0.1c0,0,0,0,0,0l0,0c0,0,0,0,0,0c-0.4-0.7-1.3-0.9-2-0.5c-0.3,0.2-0.6,0.5-0.7,0.9c0,0,0,0,0,0
		C33.5,14,34,14.8,34.8,15z"/>
</g>
</svg>
