<?xml version="1.0" encoding="utf-8"?>
<!-- Generator: Adobe Illustrator 23.1.1, SVG Export Plug-In . SVG Version: 6.00 Build 0)  -->
<svg version="1.1" id="Layer_1" xmlns="http://www.w3.org/2000/svg" xmlns:xlink="http://www.w3.org/1999/xlink" x="0px" y="0px"
	 viewBox="0 0 40.7 38.1" style="enable-background:new 0 0 40.7 38.1;" xml:space="preserve">
<style type="text/css">
	.st0{fill:#595959;}
</style>
<title>travel</title>
<g>
	<g id="Calque_1">
		<g id="Icon">
			<path class="st0" d="M22,5.4l6.3,3.7L26,11.7l-2.7-0.6c-0.3-0.1-0.5,0.1-0.6,0.3l-0.6,1.1c-0.1,0.2-0.1,0.5,0.2,0.7l2.5,1.9
				l1.9,2.9c0.1,0.2,0.4,0.3,0.7,0.2l1.1-0.4c0.2-0.1,0.4-0.3,0.4-0.6l-0.3-2.7l2.8-2l2.7,6.7c0.1,0.2,0.2,0.3,0.4,0.3h0.1
				c0.1,0,0.3,0,0.4-0.1l1.1-0.9c0.1-0.1,0.2-0.3,0.2-0.4l-0.2-9c1.9-1.8,5.8-5.8,4.4-7.4c-0.2-0.3-0.6-0.4-0.9-0.4
				c-1.9-0.1-5.6,3-6.7,4l-9.2-1.8c-0.2,0-0.3,0-0.5,0.1l-1,0.9c-0.1,0.1-0.2,0.3-0.2,0.5C21.8,5.1,21.9,5.3,22,5.4z M23.5,4.6
				l9.1,1.8c0.2,0,0.3,0,0.5-0.1c1.7-1.5,4.9-4,6.1-3.9c0.1,0,0.2,0,0.2,0.1c0.4,0.5-1.5,3.2-4.5,6c-0.1,0.1-0.2,0.3-0.2,0.4l0.2,9
				l-0.3,0.2L32,11.4c-0.1-0.2-0.2-0.3-0.4-0.3c-0.1,0-0.1,0-0.2,0c-0.1,0-0.2,0-0.3,0.1l-3.6,2.6c-0.2,0.1-0.3,0.3-0.2,0.5l0.3,2.6
				L27.3,17l-1.7-2.6c0,0-0.1-0.1-0.1-0.1l-2.2-1.7l0.1-0.3l2.6,0.6c0.2,0,0.4,0,0.5-0.2l3-3.4c0.1-0.1,0.2-0.3,0.1-0.5
				c0-0.2-0.1-0.3-0.3-0.4l-6.2-3.7L23.5,4.6z"/>
			<path class="st0" d="M34.5,19.7h-0.2c-0.2-0.1-0.4-0.2-0.5-0.4l-2.7-6.5l-2.6,1.9l0.3,2.6c0,0.3-0.1,0.6-0.4,0.7l-1.1,0.4
				c-0.3,0.1-0.7,0-0.9-0.3l-1.9-2.9l-2.5-1.9c-0.3-0.2-0.4-0.6-0.2-0.9l0.6-1.1c0.1-0.3,0.5-0.4,0.8-0.4l2.6,0.6l2.1-2.4L22,5.5
				c-0.2-0.1-0.3-0.3-0.4-0.5c0-0.2,0.1-0.4,0.2-0.6l1.1-0.9c0.2-0.1,0.4-0.2,0.6-0.2l9.1,1.8c1.4-1.2,4.8-4,6.7-4h0.1
				c0.4,0,0.7,0.2,1,0.5C41.8,3.2,38.3,7,36,9.1l0.2,8.9c0,0.2-0.1,0.4-0.2,0.5l-1,0.9C34.9,19.6,34.7,19.7,34.5,19.7z M31.3,12.3
				l0.1,0.2l2.7,6.7c0.1,0.1,0.2,0.2,0.3,0.2c0.1,0,0.3,0,0.4-0.1l1.1-0.9c0.1-0.1,0.2-0.2,0.2-0.4l-0.2-9l0,0
				c1.8-1.7,5.7-5.6,4.4-7.2c-0.2-0.2-0.5-0.4-0.8-0.4h-0.1c-1.9,0-5.5,3-6.5,4l0,0h-0.1l-9.1-1.9c-0.1,0-0.3,0-0.4,0.1L22,4.6
				c-0.2,0.2-0.2,0.4,0,0.6c0,0,0.1,0.1,0.1,0.1l0,0l6.4,3.8L26,11.9l-2.8-0.7c-0.2,0-0.4,0-0.5,0.2l-0.5,1.1
				c-0.1,0.2,0,0.4,0.1,0.5l2.5,1.9l1.9,2.9c0.1,0.2,0.3,0.2,0.5,0.2l1.1-0.4c0.2-0.1,0.3-0.3,0.3-0.4l-0.3-2.8L31.3,12.3z
				 M34.7,18.3l-2.8-6.8c0-0.1-0.1-0.2-0.3-0.2c-0.1,0-0.3,0-0.4,0.1l-3.6,2.6c-0.1,0.1-0.2,0.2-0.2,0.4l0.3,2.7l-0.5,0.2l-1.8-2.7
				c0,0-0.1-0.1-0.1-0.1l-2.3-1.8l0.3-0.5l2.7,0.6c0.2,0,0.3,0,0.4-0.1l3-3.4c0.1-0.1,0.1-0.2,0.1-0.3c0-0.1-0.1-0.2-0.2-0.3L23,4.8
				l0.5-0.4h0.1l9.1,1.8c0.1,0,0.3,0,0.4-0.1c1.7-1.5,4.9-3.9,6.2-3.9h0.1c0.1,0,0.2,0,0.3,0.1C40.1,3,37.7,6.1,35,8.5
				c-0.1,0.1-0.1,0.2-0.1,0.3l0.2,9L34.7,18.3z M31.5,10.9c0.1,0,0.1,0,0.2,0c0.2,0.1,0.4,0.2,0.5,0.4l2.6,6.5l0.1-0.1l-0.2-8.9
				c0-0.2,0.1-0.4,0.2-0.5c3.2-3,4.7-5.5,4.5-5.8h-0.1c-1.1,0-4.2,2.2-6,3.9c-0.2,0.1-0.4,0.2-0.6,0.2l-9-1.8l-0.1,0.1l6,3.6
				c0.2,0.1,0.3,0.3,0.3,0.5c0,0.2,0,0.4-0.2,0.6l-3,3.4C26.5,13,26.2,13.1,26,13l-2.5-0.6v0.1l2.1,1.6c0.1,0.1,0.1,0.1,0.2,0.2
				l1.6,2.5h0.1l-0.3-2.5c0-0.3,0.1-0.5,0.3-0.6l3.6-2.6C31.2,10.9,31.4,10.9,31.5,10.9z"/>
			<path class="st0" d="M34.7,27.5v-0.6h-5.1c0.6-2.2,0.9-4.5,1-6.9h-1.1c-0.1,2.3-0.4,4.6-1,6.9h-8.9V0.2h-0.6
				C8.6-0.1,0,8.2-0.3,18.6s8,19.1,18.5,19.3c0.3,0,0.6,0,0.9,0h0.3h0.4c9.8-0.3,17.7-8.1,18.2-17.9h-1.1
				C36.7,22.7,35.9,25.2,34.7,27.5z M14.7,1.8c-2.4,2-4.1,4.5-5.1,7.4H4.2C6.6,5.6,10.4,2.9,14.7,1.8L14.7,1.8z M3.5,10.4h5.7
				c-0.8,2.5-1.2,5.2-1.2,7.8H1.3C1.4,15.5,2.2,12.8,3.5,10.4z M3.2,27.1C2,24.7,1.3,22,1.3,19.3H8c0,2.6,0.3,5.1,1,7.6H3.2V27.1z
				 M3.7,28h5.6c0.9,3.2,2.8,6.1,5.3,8.3C10.1,35.1,6.1,32.1,3.7,28z M18.5,36.8c-3.4-0.5-6.4-3.9-8-8.8h8V36.8z M18.5,26.9h-8.3
				c-0.7-2.5-1-5-1-7.6h9.4L18.5,26.9z M18.5,18.2H9.1c0.1-2.7,0.5-5.3,1.3-7.8h8.1L18.5,18.2z M18.5,9.2h-7.7
				c1.7-4.4,4.5-7.5,7.7-7.9V9.2z M19.7,36.8L19.7,36.8l0-8.8h8.5C26.4,33.1,23.3,36.6,19.7,36.8L19.7,36.8z M24.2,36
				c2.4-2.1,4.1-4.9,5-8h5.1C32.1,31.8,28.5,34.7,24.2,36L24.2,36z"/>
			<path class="st0" d="M19.3,38.1H19c-10.5,0-19-8.5-19-19S8.5,0,19,0h0.7v0.1v26.6h8.6c0.6-2.2,0.9-4.4,1-6.7v-0.1h1.4V20
				c-0.1,2.3-0.4,4.5-1,6.7h5V27c1.1-2.2,1.8-4.6,1.9-7v-0.1h1.4V20c-0.6,9.8-8.5,17.6-18.4,18L19.3,38.1L19.3,38.1z M19.2,37.8h0.1
				h0.3h0c9.6-0.4,17.4-8,18.1-17.6h-0.8c-0.2,2.6-0.9,5.1-2.1,7.4l-0.3,0.5l0,0l0,0c-2.3,3.9-5.9,6.8-10.2,8.1l-0.7,0.2l0.6-0.5
				c2.4-2.1,4.1-4.9,5-8v-0.1h5.4V27h-5.1v-0.2c0.6-2.2,0.9-4.4,1-6.7h-0.8c-0.1,2.3-0.4,4.5-1,6.8V27h-9.1V0.3H19
				c-10.4-0.2-19,8-19.2,18.3s8,19,18.3,19.2c0.3,0,0.6,0,0.9,0L19.2,37.8z M29.4,28.2c-0.9,2.8-2.4,5.4-4.5,7.5
				c3.9-1.4,7.1-4,9.3-7.5H29.4z M19.5,37v-0.1v-9h8.9l-0.1,0.2c-1.8,5.3-5,8.7-8.6,8.9L19.5,37z M19.8,28.2v8.5
				c3.4-0.3,6.4-3.4,8.2-8.5L19.8,28.2z M18.6,37h-0.2c-3.4-0.5-6.4-3.8-8.1-8.8l-0.1-0.2h8.3V37z M10.7,28.2
				c1.7,4.8,4.5,7.9,7.6,8.4v-8.5L10.7,28.2z M15.3,36.6l-0.7-0.2c-4.6-1.2-8.6-4.2-11-8.3l-0.1-0.2h6V28c0.9,3.2,2.7,6.1,5.3,8.2
				L15.3,36.6z M4,28.2c2.3,3.8,5.8,6.5,10,7.8c-2.3-2.1-3.9-4.8-4.8-7.8L4,28.2z M3.4,27.7l-0.3-0.5c-1.2-2.4-1.9-5.1-1.9-7.8v-0.1
				h7v0.1c0,2.5,0.3,5.1,1,7.5V27H3.3L3.4,27.7z M3.2,26.8h5.6c-0.6-2.4-1-4.8-1-7.3H1.4C1.5,22,2.1,24.5,3.2,26.8L3.2,26.8z
				 M18.7,27.1H10v-0.1c-0.7-2.5-1-5-1-7.6v-0.1h9.7V27.1z M10.3,26.8h8.1v-7.3H9.2C9.3,21.9,9.6,24.4,10.3,26.8L10.3,26.8z
				 M18.7,18.4H9v-0.1c0.1-2.7,0.5-5.3,1.3-7.9v-0.1h8.3L18.7,18.4z M9.3,18.1h9.1v-7.5h-7.9C9.7,13,9.3,15.5,9.3,18.1L9.3,18.1z
				 M8.2,18.4h-7v-0.1c0.1-2.8,0.9-5.5,2.2-7.9v-0.1h6l-0.1,0.2c-0.8,2.5-1.2,5.1-1.2,7.8L8.2,18.4z M1.5,18.1h6.4
				c0.1-2.6,0.5-5.1,1.2-7.5H3.6C2.3,12.8,1.6,15.4,1.5,18.1L1.5,18.1z M18.6,9.4h-8l0.1-0.2c1.8-4.7,4.6-7.6,7.8-8h0.2L18.6,9.4z
				 M11,9.1h7.4V1.5C15.4,2,12.7,4.8,11,9.1z M9.7,9.4H3.9l0.2-0.2c2.5-3.7,6.2-6.4,10.5-7.5l0.7-0.2l-0.6,0.4
				C12.4,3.9,10.7,6.4,9.7,9.4L9.7,9.4z M4.5,9.1h5c0.9-2.7,2.5-5.1,4.5-7C10.1,3.3,6.8,5.8,4.5,9.1z"/>
			<path class="st0" d="M21.3,18.8c0.1,0,0.3-0.1,0.4-0.1l2.2-1.9c0.2-0.2,0.3-0.6,0.1-0.8c-0.2-0.2-0.6-0.3-0.8-0.1l-2.2,1.9
				c-0.2,0.2-0.3,0.5-0.1,0.8C20.9,18.7,21.1,18.8,21.3,18.8L21.3,18.8z"/>
			<path class="st0" d="M21.3,18.9c-0.2,0-0.4-0.1-0.5-0.2c-0.3-0.3-0.2-0.7,0.1-1c0,0,0,0,0,0l2.2-1.9c0.1-0.1,0.3-0.2,0.5-0.2
				c0.2,0,0.4,0.1,0.5,0.2c0.3,0.3,0.2,0.7,0,1c0,0,0,0,0,0l-2.2,1.9C21.6,18.8,21.4,18.9,21.3,18.9z M23.5,15.9
				c-0.1,0-0.2,0-0.3,0.1L21,17.9c-0.2,0.2-0.2,0.4,0,0.6c0.1,0.1,0.4,0.2,0.5,0l2.2-1.9c0.2-0.2,0.2-0.4,0-0.6
				C23.7,15.9,23.6,15.9,23.5,15.9L23.5,15.9z"/>
			<path class="st0" d="M21.3,22.3c0.1,0,0.3-0.1,0.4-0.1l3.9-3.5c0.2-0.2,0.2-0.6,0-0.8c-0.2-0.2-0.5-0.2-0.8,0l-3.9,3.5
				c-0.2,0.2-0.2,0.6,0,0.8C21,22.2,21.1,22.3,21.3,22.3z"/>
			<path class="st0" d="M21.3,22.4c-0.2,0-0.4-0.1-0.5-0.2c-0.3-0.3-0.2-0.7,0-1c0,0,0,0,0,0l3.9-3.5c0.1-0.1,0.3-0.2,0.5-0.2
				c0.4,0,0.7,0.4,0.7,0.7c0,0.2-0.1,0.4-0.2,0.5l-3.9,3.5C21.6,22.4,21.4,22.4,21.3,22.4z M25.2,17.8c-0.1,0-0.2,0-0.3,0.1L21,21.4
				c-0.2,0.2-0.2,0.4,0,0.6c0.2,0.2,0.4,0.2,0.6,0l3.9-3.5c0.2-0.2,0.2-0.4,0-0.6c0,0,0,0,0,0C25.4,17.8,25.3,17.8,25.2,17.8
				L25.2,17.8z"/>
		</g>
	</g>
</g>
</svg>
