<?xml version="1.0" encoding="utf-8"?>
<!-- Generator: Adobe Illustrator 23.1.1, SVG Export Plug-In . SVG Version: 6.00 Build 0)  -->
<svg version="1.1" id="Layer_1" xmlns="http://www.w3.org/2000/svg" xmlns:xlink="http://www.w3.org/1999/xlink" x="0px" y="0px"
	 viewBox="0 0 45.9 32.5" style="enable-background:new 0 0 45.9 32.5;" xml:space="preserve">
<style type="text/css">
	.st0{fill:#595959;}
</style>
<title>truck</title>
<g>
	<g id="Calque_1">
		<path class="st0" d="M25.5,26.2H16c-0.4,0-0.7-0.3-0.7-0.7c0-0.4,0.3-0.7,0.7-0.7h8.9V1.3H1.3v23.6h4.1c0.4,0,0.7,0.3,0.7,0.7
			c0,0.4-0.3,0.7-0.7,0.7H0.7c-0.4,0-0.7-0.3-0.7-0.7V0.7C0,0.3,0.3,0,0.7,0h24.9c0.4,0,0.7,0.3,0.7,0.7v24.9
			C26.2,25.9,25.9,26.2,25.5,26.2z"/>
		<path class="st0" d="M45.2,26.2H41c-0.4,0-0.7-0.3-0.7-0.7c0-0.4,0.3-0.7,0.7-0.7c0,0,0,0,0,0h3.6v-6.8L36.4,6.5H26.2v18.3h4.2
			c0.4,0,0.7,0.3,0.7,0.7c0,0.4-0.3,0.7-0.7,0.7h-4.9c-0.4,0-0.7-0.3-0.6-0.7V5.9c0-0.4,0.3-0.7,0.6-0.7c0,0,0,0,0,0h11.2
			c0.2,0,0.4,0.1,0.5,0.3l8.5,12.1c0.1,0.1,0.1,0.2,0.1,0.4v7.6C45.9,25.9,45.6,26.2,45.2,26.2z"/>
		<path class="st0" d="M35.7,20.6c2.9,0,5.3,2.4,5.3,5.3s-2.4,5.3-5.3,5.3c-2.9,0-5.3-2.4-5.3-5.3c0,0,0,0,0,0
			C30.4,22.9,32.8,20.6,35.7,20.6C35.7,20.6,35.7,20.6,35.7,20.6 M35.7,19.2c-3.7,0-6.6,3-6.6,6.6s3,6.6,6.6,6.6
			c3.7,0,6.6-3,6.6-6.6c0,0,0,0,0,0C42.3,22.2,39.3,19.3,35.7,19.2z"/>
		<path class="st0" d="M35.7,24.9c0.6,0,1,0.4,1,1s-0.4,1-1,1s-1-0.4-1-1S35.1,24.9,35.7,24.9 M35.7,23.6c-1.3,0-2.3,1-2.3,2.3
			s1,2.3,2.3,2.3c1.3,0,2.3-1,2.3-2.3C38,24.6,37,23.6,35.7,23.6L35.7,23.6z"/>
		<path class="st0" d="M10.7,20.6c2.9,0,5.3,2.4,5.3,5.3s-2.4,5.3-5.3,5.3s-5.3-2.4-5.3-5.3c0,0,0,0,0,0
			C5.4,22.9,7.7,20.6,10.7,20.6 M10.7,19.2c-3.7,0-6.6,3-6.6,6.6s3,6.6,6.6,6.6s6.6-3,6.6-6.6C17.3,22.2,14.3,19.3,10.7,19.2z"/>
		<path class="st0" d="M10.7,24.9c0.6,0,1,0.4,1,1s-0.4,1-1,1s-1-0.4-1-1S10.1,24.9,10.7,24.9 M10.7,23.6c-1.3,0-2.3,1.1-2.3,2.3
			c0,1.3,1.1,2.3,2.3,2.3c1.3,0,2.3-1,2.3-2.3C13,24.6,12,23.6,10.7,23.6C10.7,23.6,10.7,23.6,10.7,23.6L10.7,23.6z"/>
		<path class="st0" d="M21.1,14.7h-9.4c-0.4,0-0.7-0.3-0.7-0.7c0-0.4,0.3-0.7,0.7-0.7h9.4c0.4,0,0.7,0.3,0.7,0.7
			C21.7,14.4,21.4,14.7,21.1,14.7z"/>
		<path class="st0" d="M21.1,8.8H5.4C5,8.8,4.7,8.5,4.7,8.1c0-0.4,0.3-0.7,0.7-0.7h15.7c0.4,0,0.7,0.3,0.7,0.7
			C21.7,8.5,21.4,8.8,21.1,8.8z"/>
		<path class="st0" d="M34.7,9.3l3.6,6.1h-9.7V9.3H34.7 M34.7,8h-6.1c-0.7,0-1.3,0.6-1.3,1.3v6.1c0,0.7,0.6,1.3,1.3,1.3h9.7
			c0.5,0,0.9-0.3,1.1-0.7c0.2-0.4,0.2-0.9,0-1.3l-3.6-6C35.6,8.2,35.2,8,34.7,8z"/>
	</g>
</g>
</svg>
