<svg xmlns="http://www.w3.org/2000/svg" viewBox="0 0 300 300"><defs><style>.cls-1{fill:#d8d8d8;}.cls-2{fill:#336;}.cls-3{fill:#fff;}</style></defs><title>ux-disc</title><g id="Layer_2" data-name="Layer 2"><g id="Layer_1-2" data-name="Layer 1"><circle class="cls-1" cx="150" cy="150" r="150"/><path class="cls-2" d="M203.29,116.31h13.5l-7.67,36a43.66,43.66,0,0,1-5.32,13.86,37.19,37.19,0,0,1-8.14,9.47,31.79,31.79,0,0,1-9.56,5.42,29.11,29.11,0,0,1-9.52,1.74h-7.67a21.14,21.14,0,0,1-7-1.28,19.25,19.25,0,0,1-6.65-4,21.87,21.87,0,0,1-5-7.06,24.42,24.42,0,0,1-2-10.34c0-1.29.07-2.62.2-4s.34-2.76.62-4.19l7.57-35.61h13.61l-7.47,34.89a36.32,36.32,0,0,0-.92,7.57q0,6.55,3.27,9.47t9.31,2.91h.62a19.32,19.32,0,0,0,13.09-4.7q5.43-4.71,7.78-15.56Z"/><path class="cls-2" d="M237,116.31l9.52,23.74,18.93-23.74h16.47L254,149.77l13.4,33H253.22l-9.31-23.74-19.14,23.74H208.3l27.52-33.46-13.2-33.05Z"/><polygon class="cls-3" points="113.3 183.93 127.73 116.07 32.56 116.07 18.13 183.93 113.3 183.93"/><path class="cls-2" d="M34.59,118.29h90.14l-13.49,63.4H27.33s79.81-31.18,80.74-31.87c0,0,7.14-9.45,2.89-13.39-1.33-1.24-3.27-1.32-10.43-1.28,0,0-.27-2.72-11.42-5.33C87.83,129.52,34.59,118.29,34.59,118.29ZM97.3,139.07a24.12,24.12,0,0,1-5.86,1.34c-1.2.1-1.78.1-1.78.42,0,.5,1.6.33,2.2.33,2.65,0,12.79-.69,15.29-.35,1.94.25-.25,4.05-.82,6.4-.2.83.41.4.71,0,.77-1.16,2.7-5,2.87-6.38.33-2.87-1.76-3.29-5.15-3.29h-5.4c-.45,0-.51.18-.69.46A4.93,4.93,0,0,1,97.3,139.07ZM64.11,160.55c8.33-3.93,14-6.61,20.87-9A84.15,84.15,0,0,1,97.1,148c3.27-.78,7.52-1.44,8-1.72.88-.47-1-1.29-5.23-1.12-10.32.43-27.32,7.37-34.28,10.75l-6-18.42h39C98.16,133,75.6,133,74.88,133H31.47L21.13,181.71l43-21.16"/><path class="cls-2" d="M137.16,121a3.45,3.45,0,1,1-3.44-3.45A3.4,3.4,0,0,1,137.16,121Zm-6.35,0a2.91,2.91,0,1,0,2.91-3A2.89,2.89,0,0,0,130.81,121Zm2.15,2h-.49v-4H134c.9,0,1.29.39,1.29,1.1a1.07,1.07,0,0,1-1,1.11l1.19,1.77h-.58l-1.12-1.77H133Zm.65-2.18c.6,0,1.19,0,1.19-.7s-.46-.68-.94-.68H133v1.38Z"/></g></g></svg>