<svg id="Layer_1" data-name="Layer 1" xmlns="http://www.w3.org/2000/svg" viewBox="0 0 287.6 74.31"><defs><style>.cls-1{fill:#343466;}.cls-2{fill:#595959;}.cls-3{fill:#999;}.cls-4{fill:#fff;}</style></defs><title>ux-long</title><text/><path class="cls-1" d="M204.37,3.14a3.09,3.09,0,1,1-6.17,0,3.09,3.09,0,0,1,6.17,0Zm-5.69,0a2.61,2.61,0,1,0,5.21,0,2.61,2.61,0,1,0-5.21,0Zm1.92,1.78h-.44V1.36h1.37c.81,0,1.16.35,1.16,1a1,1,0,0,1-.89,1l1.06,1.58h-.51l-1-1.58h-.74ZM201.18,3c.54,0,1.08,0,1.08-.63s-.42-.61-.85-.61h-.81V3Z"/><path class="cls-2" d="M4.5,46.29h3L5.84,53.07l-.41,1.68a2.85,2.85,0,0,0,0,.4A1.46,1.46,0,0,0,6,56.37a3,3,0,0,0,1.83.48,4,4,0,0,0,1.79-.35,2.46,2.46,0,0,0,1.1-1,10.1,10.1,0,0,0,.79-2.34l1.67-6.83h3l-1.67,6.84a12.11,12.11,0,0,1-1.21,3.29,4.93,4.93,0,0,1-2.08,1.86A7.67,7.67,0,0,1,7.72,59a6.18,6.18,0,0,1-3.9-1.07,3.35,3.35,0,0,1-1.35-2.75,4.21,4.21,0,0,1,.07-.76c0-.18.14-.7.34-1.55Z"/><path class="cls-2" d="M16.62,54.74l2.86-.13A2.48,2.48,0,0,0,20,56.19a3.43,3.43,0,0,0,2.43.66,3.88,3.88,0,0,0,2.13-.45,1.31,1.31,0,0,0,.66-1.09,1.13,1.13,0,0,0-.54-.94,10.74,10.74,0,0,0-2.08-.91,22.39,22.39,0,0,1-2.48-1.05,3.46,3.46,0,0,1-1.23-1.1,2.84,2.84,0,0,1-.44-1.58,3.17,3.17,0,0,1,1.33-2.61,6.14,6.14,0,0,1,3.86-1,6.62,6.62,0,0,1,4,1,3.62,3.62,0,0,1,1.55,2.74L26.24,50a1.91,1.91,0,0,0-.75-1.37,3.22,3.22,0,0,0-1.92-.48,3.14,3.14,0,0,0-1.77.38,1.12,1.12,0,0,0-.54.95,1.06,1.06,0,0,0,.49.88,10.55,10.55,0,0,0,2.16,1,12.68,12.68,0,0,1,3.21,1.51,2.73,2.73,0,0,1,1,2.19,3.49,3.49,0,0,1-1.52,2.83A6.87,6.87,0,0,1,22.36,59a8.9,8.9,0,0,1-3.26-.54,3.71,3.71,0,0,1-2-1.51A4.05,4.05,0,0,1,16.62,54.74Z"/><path class="cls-2" d="M29.77,58.79l3-12.5H43.64l-.51,2.09H35.31l-.69,2.84h7.55l-.51,2.09H34.11l-.92,3.39h8.49l-.51,2.09Z"/><path class="cls-2" d="M46.43,58.79h-3l3-12.5H53a9.26,9.26,0,0,1,2.6.29,2.92,2.92,0,0,1,1.5,1.08,3.17,3.17,0,0,1,.58,1.9,3.44,3.44,0,0,1-1.12,2.63,5.81,5.81,0,0,1-3.38,1.29,5.09,5.09,0,0,1,1.09,1.16,28.92,28.92,0,0,1,2.24,4.15H53.25a31,31,0,0,0-1.52-3.3,3.93,3.93,0,0,0-1.31-1.63,3.19,3.19,0,0,0-1.5-.25H47.7Zm1.73-7h1.59A13.38,13.38,0,0,0,53,51.49a2.57,2.57,0,0,0,1.24-.78,1.68,1.68,0,0,0,.45-1.1,1.11,1.11,0,0,0-.65-1,4.68,4.68,0,0,0-1.72-.2H49Z"/><path class="cls-2" d="M63.76,58.79l3-12.5H77.63l-.51,2.09H69.3l-.69,2.84h7.55l-.5,2.09H68.1l-.92,3.39h8.5l-.52,2.09Z"/><path class="cls-2" d="M79.79,58.79H75.91l6.44-6.33-3.63-6.17h3.14l1.42,2.34c0,.09.37.67,1,1.73,0,.06.08.14.13.23q1.22-1.26,2-2.07l2.3-2.23H92.5l-6.68,6.58,3.6,5.92H86L84.94,56.9a23.17,23.17,0,0,1-1.14-2.14,27.91,27.91,0,0,1-2,2.08Z"/><path class="cls-2" d="M94,58.79H91L94,46.29h5.93a7.9,7.9,0,0,1,2.5.32,2.93,2.93,0,0,1,1.46,1.06,2.9,2.9,0,0,1,.54,1.76,4.17,4.17,0,0,1-.43,1.84A4.25,4.25,0,0,1,103,52.7a4.33,4.33,0,0,1-1.34.81,8.09,8.09,0,0,1-1.93.43C99.22,54,98.34,54,97,54H95.12ZM95.62,52h.92a12.52,12.52,0,0,0,3.18-.26,2.65,2.65,0,0,0,1.26-.81,2,2,0,0,0,.45-1.24,1.11,1.11,0,0,0-.23-.74,1.32,1.32,0,0,0-.66-.42,7.82,7.82,0,0,0-1.88-.14H96.51Z"/><path class="cls-2" d="M104.56,58.79l3-12.5h10.82l-.51,2.09h-7.81l-.7,2.84H117l-.51,2.09H108.9L108,56.7h8.5L116,58.79Z"/><path class="cls-2" d="M121.23,58.79h-3l3.06-12.5h6.48a9.26,9.26,0,0,1,2.6.29,3,3,0,0,1,1.51,1.08,3.17,3.17,0,0,1,.57,1.9,3.4,3.4,0,0,1-1.12,2.63A5.81,5.81,0,0,1,128,53.48,5.29,5.29,0,0,1,129,54.64a28.92,28.92,0,0,1,2.24,4.15h-3.22a33.9,33.9,0,0,0-1.53-3.3,3.93,3.93,0,0,0-1.31-1.63,3.14,3.14,0,0,0-1.49-.25h-1.23Zm1.72-7h1.59a13.26,13.26,0,0,0,3.21-.25,2.57,2.57,0,0,0,1.24-.78,1.68,1.68,0,0,0,.45-1.1,1.09,1.09,0,0,0-.65-1,4.68,4.68,0,0,0-1.72-.2h-3.3Z"/><path class="cls-2" d="M132.76,58.79l3.05-12.5h3l-3.05,12.5Z"/><path class="cls-2" d="M138.55,58.79l3-12.5h10.82l-.51,2.09H144.1l-.7,2.84H151l-.51,2.09h-7.56L142,56.7h8.49L150,58.79Z"/><path class="cls-2" d="M163.82,58.79H161l-3.94-8.4L155,58.79h-2.8l3.05-12.5h2.81L162,54.65l2-8.36h2.79Z"/><path class="cls-2" d="M177.45,54.29l3,.39a6.78,6.78,0,0,1-2.66,3.21A7.58,7.58,0,0,1,173.67,59a6,6,0,0,1-4.19-1.38,5.19,5.19,0,0,1-1.51-4,7.76,7.76,0,0,1,1-3.9A6.85,6.85,0,0,1,171.79,47a8.31,8.31,0,0,1,3.9-.93,6.28,6.28,0,0,1,3.83,1.08,4.26,4.26,0,0,1,1.72,3l-2.87.23a2.56,2.56,0,0,0-.92-1.58,3.11,3.11,0,0,0-1.82-.49,4.33,4.33,0,0,0-4,2.68,6.25,6.25,0,0,0-.65,2.74,3.08,3.08,0,0,0,.84,2.32,2.87,2.87,0,0,0,2.1.82A3.76,3.76,0,0,0,176,56.2,3.84,3.84,0,0,0,177.45,54.29Z"/><path class="cls-2" d="M181.6,58.79l3.05-12.5h10.82L195,48.38h-7.81l-.7,2.84H194l-.51,2.09h-7.56L185,56.7h8.49L193,58.79Z"/><path class="cls-2" d="M200.92,58.79,204,46.29h3.94c1.09,0,1.79,0,2.1,0a6.94,6.94,0,0,1,1.62.32,4.65,4.65,0,0,1,1.29.67,4.49,4.49,0,0,1,1,1,4.74,4.74,0,0,1,.65,1.4,6.22,6.22,0,0,1,.23,1.72,7.09,7.09,0,0,1-.9,3.59,7.35,7.35,0,0,1-2.27,2.48,7.43,7.43,0,0,1-2.7,1.06,16.35,16.35,0,0,1-2.87.19Zm3.49-2h1.53a11.36,11.36,0,0,0,2.39-.17,3.5,3.5,0,0,0,1.36-.65,5.61,5.61,0,0,0,1.49-1.84,5.67,5.67,0,0,0,.61-2.71,3.33,3.33,0,0,0-.5-2,2.35,2.35,0,0,0-1.24-.89,7,7,0,0,0-1.84-.16h-1.75Z"/><path class="cls-2" d="M215.59,58.79l3-12.5h10.82l-.5,2.09h-7.82l-.7,2.84H228l-.51,2.09h-7.56L219,56.7h8.49L227,58.79Z"/><path class="cls-2" d="M229.65,54.74l2.86-.13a2.48,2.48,0,0,0,.47,1.58,3.43,3.43,0,0,0,2.43.66,3.88,3.88,0,0,0,2.13-.45,1.3,1.3,0,0,0,.65-1.09,1.12,1.12,0,0,0-.53-.94,11.07,11.07,0,0,0-2.08-.91,21.57,21.57,0,0,1-2.48-1.05,3.46,3.46,0,0,1-1.23-1.1,2.77,2.77,0,0,1-.45-1.58,3.18,3.18,0,0,1,1.34-2.61,6.14,6.14,0,0,1,3.86-1,6.64,6.64,0,0,1,4,1,3.65,3.65,0,0,1,1.55,2.74l-2.88.11a1.92,1.92,0,0,0-.76-1.37,4.19,4.19,0,0,0-3.69-.1,1.14,1.14,0,0,0-.53.95,1,1,0,0,0,.49.88,10.55,10.55,0,0,0,2.16,1,12.68,12.68,0,0,1,3.21,1.51,2.73,2.73,0,0,1,1,2.19,3.48,3.48,0,0,1-1.53,2.83A6.84,6.84,0,0,1,235.39,59a8.9,8.9,0,0,1-3.26-.54A3.71,3.71,0,0,1,230.18,57,4.05,4.05,0,0,1,229.65,54.74Z"/><path class="cls-2" d="M242.67,58.79l3.05-12.5h3l-3.05,12.5Z"/><path class="cls-2" d="M256.58,52.11h6.54l-1.32,5.36A12.39,12.39,0,0,1,259,58.56a13.59,13.59,0,0,1-3.42.44,7,7,0,0,1-4.15-1,4.79,4.79,0,0,1-2-4.15,7.71,7.71,0,0,1,.84-3.5,7.37,7.37,0,0,1,2.89-3.11,8.46,8.46,0,0,1,4.4-1.11,7.29,7.29,0,0,1,4.06,1,4.78,4.78,0,0,1,2,2.94l-2.79.27a3.08,3.08,0,0,0-1.19-1.6,3.79,3.79,0,0,0-2.07-.53,5.6,5.6,0,0,0-2.67.64,4.52,4.52,0,0,0-1.9,2,6.42,6.42,0,0,0-.69,3,3,3,0,0,0,.84,2.33,3.56,3.56,0,0,0,2.45.75,9.2,9.2,0,0,0,2-.23,10.64,10.64,0,0,0,1.75-.56l.45-1.86h-3.72Z"/><path class="cls-2" d="M276,58.79h-2.8l-3.94-8.4-2.05,8.4h-2.8l3.05-12.5h2.8l4,8.36,2-8.36H279Z"/><path class="cls-1" d="M80.85,38.41c-9.93,0-15.87-4-13.93-12.82C70.18,10.3,72.33.06,72.33.06h8.31s-5.1,23.59-4.94,23c-1.32,5.83,0,9.35,6.36,9.41,6.09,0,9.19-3.52,10.45-9.41.74-3.36,4.94-23,4.94-23h8.3c-5.57,25.53,0,0-5.51,25.53C98.34,34.42,90.78,38.41,80.85,38.41Z"/><path class="cls-1" d="M131.89,6H123c-4.52,0-6.57,1-7,2.79-1.26,6,15,10.77,13.45,20-.84,5.15-5.36,8.88-15.76,8.88H101l1.26-6H112.5c3.15,0,7,.16,7.77-3,1.21-5.42-14.76-10.78-13.55-19.81.73-5.42,5.57-8.88,15.34-8.88H133.2Z"/><path class="cls-1" d="M150,23.33c-1.32,0-2.74-.21-3.95-.31l-.42-5.47a36.47,36.47,0,0,0,3.68.27c5.68,0,7.73-3.89,8.2-6.15.89-4.1-1.21-5.62-4.26-5.62h-6.77l-6.73,31.68h-8.3l8-37.67h18c8.14,0,9.09,7.09,8.09,11.82C164,19,157.47,23.33,150,23.33Z"/><path class="cls-1" d="M194.48,6.05H185.6c-4.52,0-6.57.94-7,2.78-1.26,6,15,10.77,13.45,20-.84,5.15-5.36,8.88-15.76,8.88H163.58l1.27-6h10.24c3.15,0,7,.16,7.78-3,1.21-5.41-14.77-10.77-13.56-19.8.74-5.42,5.57-8.88,15.35-8.88h11.13Z"/><path class="cls-3" d="M242.17.14H250L245.55,21a25.42,25.42,0,0,1-3.08,8,21.56,21.56,0,0,1-4.7,5.47,18.44,18.44,0,0,1-5.53,3.14,16.85,16.85,0,0,1-5.51,1H222.3a12,12,0,0,1-4.05-.74,11.14,11.14,0,0,1-3.85-2.33,12.81,12.81,0,0,1-2.9-4.09,14,14,0,0,1-1.15-6,22.93,22.93,0,0,1,.12-2.31c.08-.79.19-1.6.35-2.42L215.2.14h7.87l-4.32,20.17a20.92,20.92,0,0,0-.53,4.38c0,2.52.63,4.35,1.89,5.47a7.78,7.78,0,0,0,5.38,1.69h.36a11.19,11.19,0,0,0,7.57-2.72q3.14-2.73,4.49-9Z"/><path class="cls-3" d="M261.64.14l5.5,13.72L278.08.14h9.52L271.51,19.48l7.75,19.11H271l-5.38-13.72L254.6,38.59h-9.53L261,19.25,253.35.14Z"/><polygon class="cls-4" points="57.15 39.24 65.49 0 10.47 0 2.13 39.24 57.15 39.24"/><path class="cls-1" d="M11.64,1.28H63.76L56,37.94H7.44s46.15-18,46.68-18.43c0,0,4.13-5.46,1.68-7.74-.78-.71-1.89-.76-6-.74,0,0-.15-1.57-6.6-3.08C42.43,7.78,11.64,1.28,11.64,1.28Zm36.26,12a14.4,14.4,0,0,1-3.39.78c-.69.05-1,.05-1,.24s.93.19,1.27.18c1.54,0,7.4-.39,8.85-.2,1.11.15-.15,2.35-.48,3.7-.12.48.24.24.41,0a14.25,14.25,0,0,0,1.66-3.69c.19-1.65-1-1.9-3-1.9H49.09c-.26,0-.3.11-.4.27A2.82,2.82,0,0,1,47.9,13.3ZM28.71,25.72a120.53,120.53,0,0,1,12.07-5.21,50.46,50.46,0,0,1,7-2.05c1.9-.45,4.35-.83,4.65-1,.51-.28-.55-.75-3-.65-6,.25-15.8,4.26-19.82,6.21L26.1,12.39H48.61C48.4,9.8,35.35,9.78,34.94,9.77H9.84L3.86,38,28.71,25.72"/><path class="cls-3" d="M0,74.12l4.89-8H6.25l1.42,8H6.55l-.42-2.29H2.65L1.26,74.12ZM3.14,71H6l-.33-2a19.8,19.8,0,0,1-.24-2,15.81,15.81,0,0,1-.86,1.63Z"/><path class="cls-3" d="M9.34,74.12l1.8-8h2.6a5.83,5.83,0,0,1,1.43.13,2.72,2.72,0,0,1,1.2.6A2.69,2.69,0,0,1,17.13,68a4.16,4.16,0,0,1,.25,1.45,4.71,4.71,0,0,1-.32,1.76,4.91,4.91,0,0,1-.82,1.39,4.35,4.35,0,0,1-1.06.94,4.13,4.13,0,0,1-1.32.51,7,7,0,0,1-1.42.12Zm1.36-.9h1.36a7.35,7.35,0,0,0,1.64-.16,2.33,2.33,0,0,0,.77-.29,3,3,0,0,0,.76-.64,4.76,4.76,0,0,0,.71-1.22,4.25,4.25,0,0,0,.27-1.56,2.54,2.54,0,0,0-.37-1.49,1.7,1.7,0,0,0-.93-.68,4.53,4.53,0,0,0-1.29-.13H12.09Z"/><path class="cls-3" d="M18.57,74.12l1.8-8H23a5.83,5.83,0,0,1,1.43.13,2.72,2.72,0,0,1,1.2.6A2.67,2.67,0,0,1,26.35,68a3.94,3.94,0,0,1,.26,1.45,4.71,4.71,0,0,1-.32,1.76,4.91,4.91,0,0,1-.82,1.39,4.38,4.38,0,0,1-1.07.94,4.07,4.07,0,0,1-1.31.51,7.09,7.09,0,0,1-1.42.12Zm1.36-.9h1.36a7.35,7.35,0,0,0,1.64-.16,2.42,2.42,0,0,0,.77-.29,3,3,0,0,0,.75-.64,4.51,4.51,0,0,0,.72-1.22,4.25,4.25,0,0,0,.27-1.56,2.62,2.62,0,0,0-.37-1.49,1.7,1.7,0,0,0-.93-.68,4.61,4.61,0,0,0-1.3-.13H21.32Z"/><path class="cls-3" d="M27.82,74.12l1.81-8h3.62a6,6,0,0,1,1.62.17,1.58,1.58,0,0,1,.87.62,2,2,0,0,1,.31,1.15,2.12,2.12,0,0,1-.69,1.62,3.92,3.92,0,0,1-2.22.84,3,3,0,0,1,.71.63,7.06,7.06,0,0,1,.87,1.45l.66,1.5H34.09l-.61-1.48a7.1,7.1,0,0,0-.77-1.4,1.39,1.39,0,0,0-.6-.53,2.63,2.63,0,0,0-1-.13H29.78L29,74.12ZM30,69.71h1.59c.74,0,1.22,0,1.45,0a3,3,0,0,0,1.07-.28,1.61,1.61,0,0,0,.64-.57,1.36,1.36,0,0,0,.23-.77,1,1,0,0,0-.17-.61.82.82,0,0,0-.45-.35,3.34,3.34,0,0,0-.94-.09H30.58Z"/><path class="cls-3" d="M37,74.12l1.8-8h6.23l-.21.91H39.78l-.56,2.48h4.94l-.21.91H39l-.62,2.78h5.43l-.21.9Z"/><path class="cls-3" d="M45.9,71.54l1.13-.1v.28a1.66,1.66,0,0,0,.22.85,1.55,1.55,0,0,0,.76.59,3.47,3.47,0,0,0,1.26.21A2.54,2.54,0,0,0,50.84,73a1.21,1.21,0,0,0,.54-1,1,1,0,0,0-.28-.68,5.7,5.7,0,0,0-1.61-.83,10.86,10.86,0,0,1-1.39-.63,2.62,2.62,0,0,1-.86-.77,1.68,1.68,0,0,1-.27-1A1.84,1.84,0,0,1,47.33,67a2.25,2.25,0,0,1,1.07-.75A4.42,4.42,0,0,1,50,66a4.24,4.24,0,0,1,1.77.33,2.31,2.31,0,0,1,1.05.87,2,2,0,0,1,.33,1,1.23,1.23,0,0,1,0,.17L52,68.49A1.84,1.84,0,0,0,52,68a1.34,1.34,0,0,0-.37-.56,1.75,1.75,0,0,0-.68-.37,3.24,3.24,0,0,0-1-.14,2.41,2.41,0,0,0-1.46.39,1,1,0,0,0-.4.8.85.85,0,0,0,.16.52,1.62,1.62,0,0,0,.6.46c.2.1.69.31,1.45.63a10,10,0,0,1,1.28.59,2.23,2.23,0,0,1,.73.7,1.87,1.87,0,0,1-.18,2.13,2.63,2.63,0,0,1-1.18.85,4.59,4.59,0,0,1-1.72.3,4.41,4.41,0,0,1-2.39-.59A2.32,2.32,0,0,1,45.9,71.54Z"/><path class="cls-3" d="M54.46,71.54l1.13-.1v.28a1.67,1.67,0,0,0,.23.85,1.46,1.46,0,0,0,.76.59,3.39,3.39,0,0,0,1.26.21A2.51,2.51,0,0,0,59.4,73,1.19,1.19,0,0,0,60,72a1,1,0,0,0-.29-.68,5.7,5.7,0,0,0-1.61-.83,10.54,10.54,0,0,1-1.38-.63,2.52,2.52,0,0,1-.86-.77,1.61,1.61,0,0,1-.28-1A1.79,1.79,0,0,1,55.9,67,2.18,2.18,0,0,1,57,66.27,4.42,4.42,0,0,1,58.55,66a4.24,4.24,0,0,1,1.77.33,2.21,2.21,0,0,1,1,.87,2,2,0,0,1,.33,1,1.23,1.23,0,0,1,0,.17l-1.11.08a1.84,1.84,0,0,0-.06-.53,1.34,1.34,0,0,0-.37-.56,1.75,1.75,0,0,0-.68-.37,3.18,3.18,0,0,0-1-.14,2.42,2.42,0,0,0-1.47.39,1,1,0,0,0-.4.8.85.85,0,0,0,.17.52,1.65,1.65,0,0,0,.59.46c.21.1.69.31,1.45.63a11.08,11.08,0,0,1,1.29.59,2.3,2.3,0,0,1,.72.7,1.76,1.76,0,0,1,.25.94,1.9,1.9,0,0,1-.42,1.19,2.75,2.75,0,0,1-1.18.85,4.65,4.65,0,0,1-1.73.3,4.43,4.43,0,0,1-2.39-.59A2.36,2.36,0,0,1,54.46,71.54Z"/><path class="cls-3" d="M62.87,74.12l1.8-8h1.15l-1.8,8Z"/><path class="cls-3" d="M66.64,74.12l1.81-8h1.11l1.46,3c.44.91.79,1.68,1,2.3.15.37.32.86.52,1.47.1-.67.24-1.36.4-2.08l1.06-4.69h1.12l-1.8,8H72.23l-2.14-4.61a21.27,21.27,0,0,1-.89-2.15,18.3,18.3,0,0,1-.34,1.91l-1.09,4.85Z"/><path class="cls-3" d="M80.22,71l.2-.91H84.2l-.74,3.25a7,7,0,0,1-1.62.68,6.68,6.68,0,0,1-1.79.26,3.57,3.57,0,0,1-2.82-1.05,3.32,3.32,0,0,1-.78-2.28,5.1,5.1,0,0,1,.69-2.62,4.32,4.32,0,0,1,1.73-1.74A4.75,4.75,0,0,1,81.19,66a4.24,4.24,0,0,1,1.64.31,2.7,2.7,0,0,1,1.12.82,3.34,3.34,0,0,1,.56,1.35l-1.13.11a2,2,0,0,0-.76-1.26,2.36,2.36,0,0,0-1.47-.44,3.51,3.51,0,0,0-1.75.47,3.37,3.37,0,0,0-1.29,1.42,4.64,4.64,0,0,0-.49,2.16,2.43,2.43,0,0,0,.64,1.82,2.46,2.46,0,0,0,1.77.62,5.17,5.17,0,0,0,2.42-.69L82.84,71Z"/><path class="cls-3" d="M95,73.34a5,5,0,0,1-1.26.76,3.28,3.28,0,0,1-1.16.2,2.77,2.77,0,0,1-1.89-.64A2.06,2.06,0,0,1,90,72.05a2.29,2.29,0,0,1,.27-1.12,2.72,2.72,0,0,1,.8-.87,5.85,5.85,0,0,1,1.2-.63,6.12,6.12,0,0,1-.37-.84,2.27,2.27,0,0,1-.09-.65,1.85,1.85,0,0,1,.28-.93,2.06,2.06,0,0,1,.78-.74A2.33,2.33,0,0,1,94,66a1.94,1.94,0,0,1,1.34.45,1.39,1.39,0,0,1,.51,1.08,1.68,1.68,0,0,1-.44,1.07,5,5,0,0,1-1.71,1.13,16.25,16.25,0,0,0,1.48,2.12A8,8,0,0,0,96,70.71l.93.44a6.5,6.5,0,0,1-1.07,1.48c.25.3.58.67,1,1.09l-.8.59A5.38,5.38,0,0,1,95,73.34Zm-.62-.75A19.11,19.11,0,0,1,92.7,70.2a4,4,0,0,0-1.14.67,1.42,1.42,0,0,0-.47,1.06,1.38,1.38,0,0,0,.45,1,1.55,1.55,0,0,0,1.12.43A2.56,2.56,0,0,0,94.41,72.59ZM93.28,69a3.83,3.83,0,0,0,1.24-.83.94.94,0,0,0,.26-.6.72.72,0,0,0-.24-.55.85.85,0,0,0-.58-.22,1,1,0,0,0-.73.31,1,1,0,0,0-.31.73A2.38,2.38,0,0,0,93.28,69Z"/><path class="cls-3" d="M106.43,71l.21-.91h3.77l-.73,3.25a7.32,7.32,0,0,1-1.63.68,6.57,6.57,0,0,1-1.79.26,3.55,3.55,0,0,1-2.81-1.05,3.32,3.32,0,0,1-.78-2.28,5.1,5.1,0,0,1,.68-2.62,4.38,4.38,0,0,1,1.73-1.74A4.77,4.77,0,0,1,107.4,66a4.33,4.33,0,0,1,1.65.31,2.67,2.67,0,0,1,1.11.82,3.34,3.34,0,0,1,.56,1.35l-1.13.11a2.07,2.07,0,0,0-.75-1.26,2.39,2.39,0,0,0-1.48-.44,3.44,3.44,0,0,0-1.74.47,3.39,3.39,0,0,0-1.3,1.42,4.76,4.76,0,0,0-.48,2.16,2.39,2.39,0,0,0,.64,1.82,2.43,2.43,0,0,0,1.77.62,5.14,5.14,0,0,0,2.41-.69l.39-1.71Z"/><path class="cls-3" d="M111.94,74.12l1.8-8H120l-.2.91h-5.07l-.57,2.48h4.94l-.2.91h-4.94l-.63,2.78h5.43l-.2.9Z"/><path class="cls-3" d="M121.06,70.78a4.63,4.63,0,0,1,1.33-3.45A4.38,4.38,0,0,1,125.62,66a3.66,3.66,0,0,1,2.63,1,3.43,3.43,0,0,1,1,2.6A4.68,4.68,0,0,1,127.78,73a4.4,4.4,0,0,1-3.11,1.23,3.89,3.89,0,0,1-1.89-.46,3.16,3.16,0,0,1-1.29-1.27A3.68,3.68,0,0,1,121.06,70.78Zm1.13,0a2.75,2.75,0,0,0,.32,1.3,2.29,2.29,0,0,0,.93.92,2.81,2.81,0,0,0,1.32.33,2.91,2.91,0,0,0,1.26-.29,3.52,3.52,0,0,0,1.07-.82,3.63,3.63,0,0,0,.75-1.27,4.49,4.49,0,0,0,.27-1.5,2.55,2.55,0,0,0-.72-1.9,2.44,2.44,0,0,0-1.78-.71A3.23,3.23,0,0,0,123.23,68,4,4,0,0,0,122.19,70.83Z"/><path class="cls-3" d="M130.7,71.54l1.13-.1v.28a1.67,1.67,0,0,0,.23.85,1.46,1.46,0,0,0,.76.59,3.39,3.39,0,0,0,1.26.21,2.56,2.56,0,0,0,1.58-.42,1.21,1.21,0,0,0,.54-1,1,1,0,0,0-.29-.68,5.59,5.59,0,0,0-1.6-.83,10.22,10.22,0,0,1-1.39-.63,2.52,2.52,0,0,1-.86-.77,1.61,1.61,0,0,1-.28-1,1.79,1.79,0,0,1,.37-1.11,2.22,2.22,0,0,1,1.06-.75,4.42,4.42,0,0,1,1.59-.27,4.32,4.32,0,0,1,1.78.33,2.31,2.31,0,0,1,1.05.87,2.11,2.11,0,0,1,.32,1v.17l-1.12.08a1.84,1.84,0,0,0-.06-.53,1.34,1.34,0,0,0-.37-.56,1.78,1.78,0,0,0-.67-.37,3.24,3.24,0,0,0-1-.14,2.42,2.42,0,0,0-1.47.39,1,1,0,0,0-.4.8.85.85,0,0,0,.17.52,1.65,1.65,0,0,0,.59.46c.21.1.69.31,1.46.63a11.56,11.56,0,0,1,1.28.59,2.3,2.3,0,0,1,.72.7,1.76,1.76,0,0,1,.25.94,1.9,1.9,0,0,1-.42,1.19,2.75,2.75,0,0,1-1.18.85,4.65,4.65,0,0,1-1.73.3,4.43,4.43,0,0,1-2.39-.59A2.36,2.36,0,0,1,130.7,71.54Z"/><path class="cls-3" d="M138.94,74.12l1.8-8h3.6a3.81,3.81,0,0,1,1.4.2,1.7,1.7,0,0,1,.78.68,2,2,0,0,1,.3,1.08,2.49,2.49,0,0,1-.22,1,2.53,2.53,0,0,1-.54.84,2.69,2.69,0,0,1-.68.5,2.63,2.63,0,0,1-.73.25,7.83,7.83,0,0,1-1.67.18h-2.16l-.73,3.24ZM141,70h1.9a4.4,4.4,0,0,0,1.63-.22,2,2,0,0,0,.83-.67,1.71,1.71,0,0,0,.31-1,1.13,1.13,0,0,0-.17-.64.94.94,0,0,0-.46-.37,4.08,4.08,0,0,0-1.15-.11h-2.22Z"/><path class="cls-3" d="M145.85,74.12l4.88-8h1.36l1.43,8H152.4L152,71.83h-3.49l-1.38,2.29ZM149,71h2.85l-.34-2c-.12-.8-.21-1.46-.24-2a12.66,12.66,0,0,1-.86,1.63Z"/><path class="cls-3" d="M156.49,74.12l1.6-7.07h-2.83l.2-.91h6.79l-.21.91h-2.8l-1.6,7.07Z"/><path class="cls-3" d="M162.33,74.12l1.81-8h1.14l-1.8,8Z"/><path class="cls-3" d="M165.28,74.12l4.89-8h1.35l1.43,8h-1.12l-.42-2.29h-3.48l-1.39,2.29ZM168.42,71h2.85l-.33-2a19.8,19.8,0,0,1-.24-2,15.81,15.81,0,0,1-.86,1.63Z"/><path class="cls-3" d="M174.57,74.12l1.8-8h1.15l-1.6,7.08h4.48l-.21.9Z"/><path class="cls-3" d="M187.7,74.12l1.6-7.07h-2.83l.21-.91h6.78l-.2.91h-2.81l-1.59,7.07Z"/><path class="cls-3" d="M193.4,74.12l1.8-8h6.23l-.21.91h-5.07l-.56,2.48h4.94l-.21.91h-4.94l-.62,2.78h5.43l-.21.9Z"/><path class="cls-3" d="M208.68,71.31l1.14.15a4.36,4.36,0,0,1-1.57,2.09,4,4,0,0,1-2.32.71,3.47,3.47,0,0,1-2.5-.89,3.38,3.38,0,0,1-.92-2.54,4.87,4.87,0,0,1,1.4-3.57A4.21,4.21,0,0,1,207,66a3.39,3.39,0,0,1,2.22.69,2.62,2.62,0,0,1,1,1.82l-1.08.1a1.91,1.91,0,0,0-2.07-1.72,3,3,0,0,0-2.56,1.3,4.25,4.25,0,0,0-.85,2.66,2.55,2.55,0,0,0,.65,1.88,2.34,2.34,0,0,0,1.7.65,2.63,2.63,0,0,0,1.62-.54A3.06,3.06,0,0,0,208.68,71.31Z"/><path class="cls-3" d="M211.15,74.12l1.81-8h1.15l-.75,3.32h4.47l.75-3.32h1.15l-1.8,8h-1.15l.84-3.76h-4.46l-.85,3.76Z"/><path class="cls-3" d="M220.46,74.12l1.81-8h1.12l1.45,3c.44.91.79,1.68,1,2.3.15.37.32.86.52,1.47.11-.67.24-1.36.4-2.08l1.06-4.69H229l-1.8,8h-1.14l-2.14-4.61a21.27,21.27,0,0,1-.89-2.15,18.3,18.3,0,0,1-.34,1.91l-1.09,4.85Z"/><path class="cls-3" d="M230.2,70.78a4.64,4.64,0,0,1,1.34-3.45A4.37,4.37,0,0,1,234.77,66a3.62,3.62,0,0,1,2.62,1,3.4,3.4,0,0,1,1,2.6A4.68,4.68,0,0,1,236.93,73a4.45,4.45,0,0,1-3.12,1.23,3.85,3.85,0,0,1-1.88-.46,3,3,0,0,1-1.29-1.27A3.69,3.69,0,0,1,230.2,70.78Zm1.14,0a2.74,2.74,0,0,0,.31,1.3,2.32,2.32,0,0,0,.94.92,2.77,2.77,0,0,0,1.31.33,2.92,2.92,0,0,0,1.27-.29,3.64,3.64,0,0,0,1.07-.82A3.78,3.78,0,0,0,237,71a4.49,4.49,0,0,0,.27-1.5,2.55,2.55,0,0,0-.72-1.9,2.44,2.44,0,0,0-1.78-.71A3.25,3.25,0,0,0,232.37,68,4,4,0,0,0,231.34,70.83Z"/><path class="cls-3" d="M239.48,74.12l1.8-8h1.16l-1.6,7.08h4.48l-.21.9Z"/><path class="cls-3" d="M247.33,70.78a4.63,4.63,0,0,1,1.33-3.45A4.4,4.4,0,0,1,251.89,66a3.64,3.64,0,0,1,2.63,1,3.4,3.4,0,0,1,1,2.6,4.65,4.65,0,0,1-.51,2.16,4.44,4.44,0,0,1-1,1.29,4.73,4.73,0,0,1-1.25.84,4.58,4.58,0,0,1-1.87.39,3.82,3.82,0,0,1-1.88-.46,3,3,0,0,1-1.29-1.27A3.69,3.69,0,0,1,247.33,70.78Zm1.14,0a2.74,2.74,0,0,0,.31,1.3,2.26,2.26,0,0,0,.94.92,2.74,2.74,0,0,0,1.31.33,2.91,2.91,0,0,0,1.26-.29,3.68,3.68,0,0,0,1.08-.82,3.76,3.76,0,0,0,.74-1.27,4.27,4.27,0,0,0,.28-1.5,2.55,2.55,0,0,0-.72-1.9,2.46,2.46,0,0,0-1.78-.71A3.25,3.25,0,0,0,249.5,68,4,4,0,0,0,248.47,70.83Z"/><path class="cls-3" d="M261.06,71l.21-.91H265l-.73,3.25a7.44,7.44,0,0,1-1.62.68,6.69,6.69,0,0,1-1.8.26,3.56,3.56,0,0,1-2.81-1.05,3.32,3.32,0,0,1-.78-2.28,5.2,5.2,0,0,1,.68-2.62,4.45,4.45,0,0,1,1.73-1.74A4.77,4.77,0,0,1,262,66a4.33,4.33,0,0,1,1.65.31,2.7,2.7,0,0,1,1.12.82,3.48,3.48,0,0,1,.56,1.35l-1.13.11a2.09,2.09,0,0,0-.76-1.26,2.36,2.36,0,0,0-1.47-.44A3.34,3.34,0,0,0,259,68.78a4.76,4.76,0,0,0-.48,2.16,2.39,2.39,0,0,0,.64,1.82,2.46,2.46,0,0,0,1.77.62,5.21,5.21,0,0,0,2.42-.69l.39-1.71Z"/><path class="cls-3" d="M269.39,74.12l.69-3.08-2.65-4.9h1.24l1.27,2.33c.28.51.55,1,.81,1.63a11.54,11.54,0,0,1,1.19-1.61l2-2.35h1.38l-4.12,5-.68,3Z"/></svg>