<?xml version="1.0" encoding="utf-8"?>
<!-- Generator: Adobe Illustrator 24.0.0, SVG Export Plug-In . SVG Version: 6.00 Build 0)  -->
<svg version="1.1" id="Layer_1" xmlns="http://www.w3.org/2000/svg" xmlns:xlink="http://www.w3.org/1999/xlink" x="0px" y="0px"
	 viewBox="0 0 147.5 37.1" style="enable-background:new 0 0 147.5 37.1;" xml:space="preserve">
<style type="text/css">
	.st0{fill:#343466;}
	.st1{fill:#FFFFFF;}
</style>
<title>ux-micro</title>
<g>
	<path class="st0" d="M104.9,0.1h7.3L108,19.9c-0.5,2.7-1.5,5.2-2.9,7.6c-1.2,2-2.7,3.7-4.4,5.2c-1.5,1.3-3.3,2.3-5.2,3
		c-1.7,0.6-3.4,0.9-5.2,1h-4.2c-1.3,0-2.6-0.3-3.8-0.7c-1.3-0.5-2.6-1.2-3.6-2.2c-1.2-1.1-2.1-2.4-2.7-3.9C75.4,28,75,26.1,75,24.1
		c0-0.7,0-1.5,0.1-2.2c0.1-0.7,0.2-1.5,0.3-2.3l4.1-19.5H87l-4.1,19.1c-0.3,1.4-0.5,2.8-0.5,4.1c0,2.4,0.6,4.1,1.8,5.2
		c1.2,1.1,2.9,1.6,5,1.6h0.3c2.6,0.1,5.1-0.9,7.1-2.6c2-1.7,3.4-4.6,4.2-8.5L104.9,0.1z"/>
	<path class="st0" d="M123.1,0.1l5.2,13l10.3-13h8.9l-15.1,18.3l7.3,18.1H132l-5-13l-10.4,13h-8.9l14.9-18.3l-7.2-18.1L123.1,0.1z"
		/>
	<polygon class="st1" points="56.1,37.2 63.9,0 12.3,0 4.5,37.2 	"/>
	<path class="st0" d="M13.4,1.2h48.9L55,35.9H9.5c0,0,43.3-17.1,43.8-17.5c0,0,3.9-5.2,1.6-7.3c-0.7-0.7-1.8-0.7-5.7-0.7
		c0,0-0.1-1.5-6.2-2.9C42.3,7.4,13.4,1.2,13.4,1.2z M47.4,12.6c-1,0.4-2.1,0.6-3.2,0.7c-0.7,0.1-1,0.1-1,0.2c0,0.3,0.9,0.2,1.2,0.2
		c1.4,0,6.9-0.4,8.3-0.2c1,0.1-0.1,2.2-0.4,3.5c-0.1,0.5,0.2,0.2,0.4,0c0.7-1.1,1.2-2.3,1.6-3.5c0.2-1.6-1-1.8-2.8-1.8h-2.9
		c-0.2,0-0.3,0.1-0.4,0.3C48,12.3,47.7,12.4,47.4,12.6z M29.4,24.4c3.7-1.8,7.5-3.5,11.3-4.9c2.1-0.8,4.3-1.5,6.6-1.9
		c1.8-0.4,4.1-0.8,4.4-0.9c0.5-0.3-0.5-0.7-2.8-0.6c-5.6,0.2-14.8,4-18.6,5.9L27,11.7h21.1c-0.2-2.5-12.4-2.5-12.8-2.5H11.7L6.1,36
		L29.4,24.4"/>
	<path class="st0" d="M69,2.7c-0.1,1-0.9,1.8-2,1.8c-0.9-0.1-1.7-0.8-1.8-1.8c-0.1-1,0.7-1.9,1.8-2c1-0.1,1.9,0.7,2,1.8
		C69,2.6,69,2.6,69,2.7z M65.6,2.7c0,0.9,0.7,1.6,1.6,1.6c0.9,0,1.6-0.7,1.6-1.6c0,0,0,0,0,0c0-0.9-0.7-1.6-1.6-1.6
		S65.6,1.8,65.6,2.7C65.6,2.7,65.6,2.7,65.6,2.7z M66.8,3.8h-0.3V1.6h0.8c0.5,0,0.7,0.2,0.7,0.6c0,0.3-0.2,0.6-0.5,0.6l0.6,1h-0.3
		l-0.6-1h-0.4L66.8,3.8z M67.1,2.6c0.3,0,0.7,0,0.7-0.4s-0.3-0.4-0.5-0.4h-0.5v0.8L67.1,2.6z"/>
</g>
</svg>
